<?xml version="1.0" encoding="UTF-8"?>
<svg version="1.1" xmlns="http://www.w3.org/2000/svg" width="500" height="130">
<path d="M0 0 C165 0 330 0 500 0 C500 42.9 500 85.8 500 130 C335 130 170 130 0 130 C0 87.1 0 44.2 0 0 Z " fill="#1E232E" transform="translate(0,0)"/>
<path d="M0 0 C0.99 0 1.98 0 3 0 C3.495 0.99 3.495 0.99 4 2 C4.99 2.66 5.98 3.32 7 4 C6.34 4.33 5.68 4.66 5 5 C5.99 6.98 5.99 6.98 7 9 C5.68 8.34 4.36 7.68 3 7 C3.165 7.639375 3.33 8.27875 3.5 8.9375 C4.15932515 12.97586652 4.08003779 16.91807258 4 21 C5.32 20.34 6.64 19.68 8 19 C7.505 20.485 7.505 20.485 7 22 C8.65 22.33 10.3 22.66 12 23 C12 22.01 12 21.02 12 20 C12.66 20 13.32 20 14 20 C14 20.66 14 21.32 14 22 C16.97 21.67 19.94 21.34 23 21 C23 17.37 23 13.74 23 10 C21.02 10.33 19.04 10.66 17 11 C19.3125 8.5 19.3125 8.5 22 6 C22.99 6 23.98 6 25 6 C24.67 8.31 24.34 10.62 24 13 C27.3863251 14.50930183 27.3863251 14.50930183 31 15 C29.68 13.68 28.36 12.36 27 11 C28.67667436 11.64108137 30.34089996 12.31471955 32 13 C33.051875 13.433125 34.10375 13.86625 35.1875 14.3125 C38.45951885 16.27571131 39.0085075 17.39457274 40 21 C40.495 22.485 40.495 22.485 41 24 C41.66 24 42.32 24 43 24 C43 24.99 43 25.98 43 27 C41.03814584 28.71140469 39.03697617 30.37873325 37 32 C36.505 32.99 36.505 32.99 36 34 C37.65 34 39.3 34 41 34 C41 34.33 41 34.66 41 35 C39.35 35 37.7 35 36 35 C37.98 37.31 39.96 39.62 42 42 C42 39.69 42 37.38 42 35 C44.75927344 37.75927344 44.51783243 40.21154052 45 44 C45.33 44.33 45.66 44.66 46 45 C46.99 44.01 46.99 44.01 48 43 C48.495 45.97 48.495 45.97 49 49 C47.68 49.33 46.36 49.66 45 50 C44.83126522 51.43725871 44.66509263 52.87481838 44.5 54.3125 C44.4071875 55.11300781 44.314375 55.91351563 44.21875 56.73828125 C43.95186537 59.11896555 43.95186537 59.11896555 44 62 C43.67 61.67 43.34 61.34 43 61 C42.67 61.99 42.34 62.98 42 64 C38.04 63.67 34.08 63.34 30 63 C30.45321328 65.06363112 30.91279106 67.12586507 31.375 69.1875 C31.63023438 70.33605469 31.88546875 71.48460938 32.1484375 72.66796875 C33.00936029 76.33738678 33.00936029 76.33738678 35 81 C38.465 76.05 38.465 76.05 42 71 C42 74.41321235 41.33132534 75.39472885 39.5 78.1875 C39.0359375 78.90292969 38.571875 79.61835937 38.09375 80.35546875 C37.7328125 80.89816406 37.371875 81.44085938 37 82 C38.73152958 80.92044741 40.46011684 79.83617488 42.1875 78.75 C43.15042969 78.14671875 44.11335938 77.5434375 45.10546875 76.921875 C47.87405327 75.08362455 50.43957951 73.11574051 53 71 C50.99428715 75.3796528 48.12879982 78.25532714 44.75 81.625 C44.1302832 82.24310547 43.51056641 82.86121094 42.87207031 83.49804688 C36.74749232 89.46495022 30.14483468 94.33469078 23 99 C22.15050781 99.57234375 21.30101563 100.1446875 20.42578125 100.734375 C13.41234187 105.23225017 5.751314 108.0628429 -2 111 C-3.19882813 111.49886719 -3.19882813 111.49886719 -4.421875 112.0078125 C-16.51445297 116.98995462 -32.41098266 116.77147657 -44.453125 112.03515625 C-52.12461517 108.62432904 -56.50137609 103.9494378 -60.9375 96.9375 C-64.59572464 86.90024615 -62.20019403 74.47343034 -58 65 C-57.01 64.505 -57.01 64.505 -56 64 C-56.33 65.19625 -56.66 66.3925 -57 67.625 C-58.89550476 76.22977339 -59.64751317 85.2615042 -55 93 C-49.44611628 98.55388372 -42.8102827 102.15294511 -34.8515625 102.42578125 C-33.10904857 102.40880023 -31.3666178 102.3709 -29.625 102.3125 C-28.73683594 102.30283203 -27.84867188 102.29316406 -26.93359375 102.28320312 C-23.32562684 102.22043214 -20.44685864 102.14895288 -17 101 C-20.66908934 100.24736629 -23.96768718 100.01123436 -27.6875 100.1875 C-31.72027057 100.20105553 -31.72027057 100.20105553 -34 98.5625 C-35.23388099 95.40067996 -35.45705192 92.4986756 -35.59375 89.12109375 C-36.09340192 86.51233419 -37.04362726 85.72854199 -39 84 C-40.68985894 80.79816201 -41.02375805 79.21778208 -40.625 75.5625 C-40.62261967 72.00646792 -40.62261967 72.00646792 -42.7734375 70.21875 C-44.80040696 68.71096921 -46.84326285 67.3142617 -49 66 C-48.55252483 63.0914114 -47.8635813 61.83157537 -45.96875 59.4921875 C-42.29881854 54.21583297 -43.48910736 47.08416845 -43.51171875 40.94140625 C-43.40163187 32.94509581 -42.08338353 27.72846761 -36.96484375 21.5390625 C-36.29582031 20.90742187 -35.62679687 20.27578125 -34.9375 19.625 C-34.26589844 18.97789063 -33.59429687 18.33078125 -32.90234375 17.6640625 C-31 16 -31 16 -28 14 C-28.66 13.67 -29.32 13.34 -30 13 C-30 12.01 -30 11.02 -30 10 C-28.75283203 9.49339844 -28.75283203 9.49339844 -27.48046875 8.9765625 C-26.39378906 8.53054687 -25.30710938 8.08453125 -24.1875 7.625 C-23.10855469 7.18414063 -22.02960937 6.74328125 -20.91796875 6.2890625 C-17.89269888 5.0520881 -17.89269888 5.0520881 -15 3 C-12.63671802 2.57460924 -10.25853818 2.22871257 -7.875 1.9375 C-3.61113227 1.76713478 -3.61113227 1.76713478 0 0 Z " fill="#4B4C71" transform="translate(68,12)"/>
<path d="M0 0 C3.24822366 -0.13014586 4.69210893 -0.18022892 7.5625 1.5 C14.482414 8.5973477 14.53183964 15.68985402 14.5 25.125 C14.131912 35.43696881 14.131912 35.43696881 19 44 C20.85890601 45.60419411 20.85890601 45.60419411 22.875 46.6875 C23.57367188 47.09871094 24.27234375 47.50992188 24.9921875 47.93359375 C27.12861831 49.10834699 27.12861831 49.10834699 30 50.25 C35.96901917 53.73192785 40.90600588 59.36901862 43 66 C43.07646165 68.3320802 43.09143299 70.66845878 43 73 C50.54300743 70.72639847 57.39827174 67.97020165 64.30859375 64.171875 C67.12608105 62.94510259 68.96551935 62.75768213 72 63 C72.20753906 62.43539062 72.41507812 61.87078125 72.62890625 61.2890625 C74.51964635 58.13244228 76.96854104 56.5270454 79.9375 54.375 C81.52884766 53.21097656 81.52884766 53.21097656 83.15234375 52.0234375 C85.08105699 50.65296637 87.03133913 49.31244058 89 48 C86.99428715 52.3796528 84.12879982 55.25532714 80.75 58.625 C80.1302832 59.24310547 79.51056641 59.86121094 78.87207031 60.49804688 C72.74749232 66.46495022 66.14483468 71.33469078 59 76 C58.15050781 76.57234375 57.30101563 77.1446875 56.42578125 77.734375 C49.41234187 82.23225017 41.751314 85.0628429 34 88 C32.80117187 88.49886719 32.80117187 88.49886719 31.578125 89.0078125 C19.48554703 93.98995462 3.58901734 93.77147657 -8.453125 89.03515625 C-16.12461517 85.62432904 -20.50137609 80.9494378 -24.9375 73.9375 C-28.59572464 63.90024615 -26.20019403 51.47343034 -22 42 C-21.01 41.505 -21.01 41.505 -20 41 C-20.495 42.794375 -20.495 42.794375 -21 44.625 C-22.89550476 53.22977339 -23.64751317 62.2615042 -19 70 C-13.44611628 75.55388372 -6.8102827 79.15294511 1.1484375 79.42578125 C2.89095143 79.40880023 4.6333822 79.3709 6.375 79.3125 C7.26316406 79.30283203 8.15132812 79.29316406 9.06640625 79.28320312 C12.67437316 79.22043214 15.55314136 79.14895288 19 78 C15.33091066 77.24736629 12.03231282 77.01123436 8.3125 77.1875 C4.27972943 77.20105553 4.27972943 77.20105553 2 75.5625 C0.76611901 72.40067996 0.54294808 69.4986756 0.40625 66.12109375 C-0.09340192 63.51233419 -1.04362726 62.72854199 -3 61 C-4.68985894 57.79816201 -5.02375805 56.21778208 -4.625 52.5625 C-4.62261967 49.00646792 -4.62261967 49.00646792 -6.7734375 47.21875 C-8.80040696 45.71096921 -10.84326285 44.3142617 -13 43 C-12.34657328 39.74771699 -11.15017824 37.24362379 -9.5 34.375 C-9.0565625 33.59898438 -8.613125 32.82296875 -8.15625 32.0234375 C-7.7746875 31.35570313 -7.393125 30.68796875 -7 30 C-5.8687159 27.7374318 -5.8760359 26.47480804 -5.859375 23.96484375 C-5.51397224 6.77547142 -5.51397224 6.77547142 0 0 Z " fill="#2FBBEA" transform="translate(32,35)"/>
<path d="M0 0 C0.66 0 1.32 0 2 0 C3.55181694 6.25856748 4.8113652 11.71349726 3 18 C0.80335216 20.15986187 -1.30223125 21.43038909 -4 23 C-3.01 23 -2.02 23 -1 23 C-0.67 23.66 -0.34 24.32 0 25 C0.99 25.33 1.98 25.66 3 26 C2.505 23.525 2.505 23.525 2 21 C3.65 20.34 5.3 19.68 7 19 C13.70459519 24.0940919 13.70459519 24.0940919 14.9375 27.875 C14.958125 28.57625 14.97875 29.2775 15 30 C16.093125 30.103125 17.18625 30.20625 18.3125 30.3125 C21.85559629 30.97307727 22.93243723 31.2027092 25 34 C22.69 34.66 20.38 35.32 18 36 C19.7015625 35.9690625 19.7015625 35.9690625 21.4375 35.9375 C25 36 25 36 26 37 C26.99 36.67 27.98 36.34 29 36 C29 35.01 29 34.02 29 33 C28.2575 32.9175 27.515 32.835 26.75 32.75 C23.48778646 31.8603054 22.19045122 30.51496251 20 28 C23.3 28 26.6 28 30 28 C30.495 29.485 30.495 29.485 31 31 C31.9075 30.896875 32.815 30.79375 33.75 30.6875 C37 31 37 31 39.375 33.5 C39.91125 34.325 40.4475 35.15 41 36 C40.34 36 39.68 36 39 36 C39 36.99 39 37.98 39 39 C40.65 38.34 42.3 37.68 44 37 C44.28571429 45.57142857 44.28571429 45.57142857 42 49 C40.515 48.01 40.515 48.01 39 47 C39.515625 47.37125 40.03125 47.7425 40.5625 48.125 C42 50 42 50 41.6875 53.1875 C41.460625 54.115625 41.23375 55.04375 41 56 C39.72125 55.896875 38.4425 55.79375 37.125 55.6875 C36.04605469 55.60048828 36.04605469 55.60048828 34.9453125 55.51171875 C33 55 33 55 31 52 C29.68 52 28.36 52 27 52 C24.40570444 49.25309882 22.53217054 46.44738372 21 43 C20.01 43.33 19.02 43.66 18 44 C18 44.99 18 45.98 18 47 C18.763125 47.103125 19.52625 47.20625 20.3125 47.3125 C23.19807812 48.05067115 24.26179817 48.62140803 26 51 C26 51.99 26 52.98 26 54 C24.54207116 54.05399736 23.08357288 54.09279177 21.625 54.125 C20.81289062 54.14820313 20.00078125 54.17140625 19.1640625 54.1953125 C17 54 17 54 15 52 C12.39719432 52.32041397 12.39719432 52.32041397 10 53 C10 54.32 10 55.64 10 57 C10.33 57.33 10.66 57.66 11 58 C11.04063832 59.66617115 11.042721 61.33388095 11 63 C10.01 63 9.02 63 8 63 C7.67 62.67 7.34 62.34 7 62 C7.66 62.99 8.32 63.98 9 65 C9 65.99 9 66.98 9 68 C9.99 68 10.98 68 12 68 C12 65.03 12 62.06 12 59 C12.66 59 13.32 59 14 59 C14.5345256 60.24420647 15.05208611 61.49570936 15.5625 62.75 C15.99755859 63.79414063 15.99755859 63.79414063 16.44140625 64.859375 C17.08177298 67.3133678 16.78066056 68.62182876 16 71 C16 71.33 16 71.66 16 72 C16 73.66666667 16 75.33333333 16 77 C11.3164557 74.34177215 11.3164557 74.34177215 9.4375 72.3125 C7.83210158 70.55048709 7.83210158 70.55048709 4 71 C3.979375 70.0925 3.95875 69.185 3.9375 68.25 C2.89118154 64.62276269 2.54629332 64.36742851 -0.5625 62.625 C-1.696875 62.08875 -2.83125 61.5525 -4 61 C-4 60.34 -4 59.68 -4 59 C-4.76957031 58.92523438 -5.53914063 58.85046875 -6.33203125 58.7734375 C-9 58 -9 58 -10.51171875 56.1015625 C-14.56375683 47.56670488 -15.87649931 39.69731732 -16.375 30.3125 C-16.83079164 23.90862749 -17.8415136 18.76537007 -22.8203125 14.40625 C-24.4903497 13.18921884 -26.24009614 12.08301776 -28 11 C-27.34 10.01 -26.68 9.02 -26 8 C-23.13792848 9.28299758 -20.9754912 10.530636 -19 13 C-19 13.99 -19 14.98 -19 16 C-17.68 16.33 -16.36 16.66 -15 17 C-14.938125 16.401875 -14.87625 15.80375 -14.8125 15.1875 C-13.64601913 12.04697458 -11.97186737 11.41839124 -9 10 C-6.1875 9.3125 -6.1875 9.3125 -4 9 C-3.896875 8.2575 -3.79375 7.515 -3.6875 6.75 C-2.95066203 3.8026481 -2.05200858 2.21616926 0 0 Z " fill="#233042" transform="translate(67,19)"/>
<path d="M0 0 C3.28616508 -0.13210714 4.74678227 -0.14133082 7.6875 1.5 C10.75768668 4.81912073 11.37473254 7.60645397 12 12 C12.2475 13.60875 12.2475 13.60875 12.5 15.25 C11.97658383 19.17562128 10.89652701 21.40046441 9.0625 24.875 C5.17283455 32.06797695 5.17283455 32.06797695 5 40 C8.58398732 44.39727675 12.71362175 46.71262169 17.6875 49.1875 C24.77533784 52.77533784 24.77533784 52.77533784 27 55 C27.8454956 59.33316493 26.7106017 61.97870862 24.5 65.625 C21.32687238 70.01116475 18.30093466 72.66575114 13 74 C9.30008285 74.3363561 5.69675166 74.39631257 2 74 C0.11692557 72.11692557 0.63496931 68.78608313 0.4765625 66.2265625 C-0.09164516 63.57182178 -0.99752247 62.76299548 -3 61 C-4.68985894 57.79816201 -5.02375805 56.21778208 -4.625 52.5625 C-4.62261967 49.00646792 -4.62261967 49.00646792 -6.7734375 47.21875 C-8.80040696 45.71096921 -10.84326285 44.3142617 -13 43 C-12.34657328 39.74771699 -11.15017824 37.24362379 -9.5 34.375 C-8.83484375 33.21097656 -8.83484375 33.21097656 -8.15625 32.0234375 C-7.7746875 31.35570313 -7.393125 30.68796875 -7 30 C-5.8687159 27.7374318 -5.8760359 26.47480804 -5.859375 23.96484375 C-5.51397224 6.77547142 -5.51397224 6.77547142 0 0 Z " fill="#7FD7F6" transform="translate(32,35)"/>
<path d="M0 0 C0.66 0.99 1.32 1.98 2 3 C3.32 3 4.64 3 6 3 C8 6 8 6 8 10 C7.01 10.804375 6.02 11.60875 5 12.4375 C1.72732766 14.65533762 1.72732766 14.65533762 1.625 17.8125 C1.74875 18.534375 1.8725 19.25625 2 20 C-2.12491697 17.88179939 -3.68071095 15.93270752 -6 12 C-8.06700655 10.67206394 -8.06700655 10.67206394 -10 10 C-10.33 10.66 -10.66 11.32 -11 12 C-9.9275 12.66 -8.855 13.32 -7.75 14 C-3.59492383 17.02799073 -1.43141921 20.05000843 0 25 C0.38378757 28.18417158 0.57032185 31.34393703 0.73046875 34.546875 C1.34615358 42.43477921 3.08403181 50.10043699 7 57 C7 57.66 7 58.32 7 59 C8.65 59.33 10.3 59.66 12 60 C12 60.66 12 61.32 12 62 C12.5775 62.103125 13.155 62.20625 13.75 62.3125 C16.43825009 63.13390975 17.97475522 64.04459125 20 66 C20.75 68.6875 20.75 68.6875 21 71 C21.53625 71.061875 22.0725 71.12375 22.625 71.1875 C25 72 25 72 27.75 74.5 C31.28453605 77.64483079 34.3619296 77.76009981 39 78 C38.71125 77.0925 38.4225 76.185 38.125 75.25 C37.17864966 69.28922191 41.17231735 63.99147459 44 59 C44.66 59 45.32 59 46 59 C46.53251766 60.91345327 47.05059483 62.8309295 47.5625 64.75 C47.85253906 65.81734375 48.14257812 66.8846875 48.44140625 67.984375 C48.97661121 70.87373324 49.18984313 72.34527463 48 75 C47.01 75.66 46.02 76.32 45 77 C44.74969023 79.58380177 44.74969023 79.58380177 45 82 C38.11603868 86.1617865 32.01952421 88.991036 24 90 C23.90203125 89.43152344 23.8040625 88.86304687 23.703125 88.27734375 C21.96247724 79.28899884 18.68776718 73.21253911 11 68 C9.30631707 67.13728026 7.5970338 66.30464079 5.875 65.5 C0.64661678 63.04098872 -2.37966607 60.24066785 -5 55 C-5.10638216 53.13492487 -5.1554292 51.26643327 -5.17578125 49.3984375 C-5.19962891 48.26792969 -5.22347656 47.13742188 -5.24804688 45.97265625 C-5.29059259 43.59783175 -5.32206993 41.22277991 -5.34179688 38.84765625 C-5.53180817 31.04393645 -6.16337596 24.83662404 -11.9375 19.0625 C-14.28241481 17.85451358 -16.39533807 17.3617586 -19 17 C-19.28875 17.7425 -19.5775 18.485 -19.875 19.25 C-21 22 -21 22 -22.04882812 23.89208984 C-23.10836772 26.24015578 -23.28086732 27.91192475 -23.34375 30.4765625 C-23.37339844 31.311875 -23.40304688 32.1471875 -23.43359375 33.0078125 C-23.47806268 34.76041165 -23.52233176 36.51301588 -23.56640625 38.265625 C-23.61087891 39.51472656 -23.61087891 39.51472656 -23.65625 40.7890625 C-23.67494141 41.54912598 -23.69363281 42.30918945 -23.71289062 43.09228516 C-24 45 -24 45 -26 47 C-26.1174875 43.66696997 -26.18767324 40.33448163 -26.25 37 C-26.28351562 36.06542969 -26.31703125 35.13085938 -26.3515625 34.16796875 C-26.45895763 26.48921699 -24.86123349 21.45984089 -19.96484375 15.5390625 C-19.29582031 14.90742187 -18.62679687 14.27578125 -17.9375 13.625 C-17.26589844 12.97789063 -16.59429687 12.33078125 -15.90234375 11.6640625 C-14 10 -14 10 -11 8 C-11.66 7.67 -12.32 7.34 -13 7 C-13 6.01 -13 5.02 -13 4 C-8.71 2.68 -4.42 1.36 0 0 Z " fill="#0C4770" transform="translate(51,18)"/>
<path d="M0 0 C3.01125 -0.061875 6.0225 -0.12375 9.125 -0.1875 C10.06230957 -0.21481201 10.99961914 -0.24212402 11.96533203 -0.27026367 C18.65094769 -0.33647903 22.68842987 1.04019054 27.875 5.4375 C30.81889011 9.27318743 30.75247633 13.39908993 30.5546875 18.08203125 C29.7047104 22.55338967 27.66136473 25.34729757 24 28 C19.27495058 30.64461721 14.44024914 30.2260574 9.1875 30.125 C6.155625 30.08375 3.12375 30.0425 0 30 C0 20.1 0 10.2 0 0 Z " fill="#EFF0F0" transform="translate(402,53)"/>
<path d="M0 0 C4.26496654 3.04640467 7.17488894 5.2447858 8.07421875 10.5 C8.25328626 15.04460985 7.95888516 18.16870446 6 22.3125 C1.36006364 27.31874712 -1.89186066 29.15814728 -8.75 29.5625 C-14.75794238 29.39752218 -17.78521738 27.90719813 -21.984375 23.69921875 C-24.96618818 19.78768293 -24.82428808 15.40500004 -24.79296875 10.67578125 C-24.12919507 6.22787722 -21.84622656 3.60580438 -18.375 0.875 C-12.89094266 -2.54393115 -5.93734397 -1.97911466 0 0 Z " fill="#F7F7F7" transform="translate(266.375,54.125)"/>
<path d="M0 0 C5.87566456 5.67980907 5.87566456 5.67980907 6.34765625 10.69140625 C6.22884517 15.37641627 4.53763929 18.82654635 2.4375 22.9375 C-0.52097637 29.11771613 -1.83250132 33.15866175 0 40 C0.67675781 40.25910156 1.35351562 40.51820312 2.05078125 40.78515625 C5.49731 42.2048522 8.84485402 43.79237329 12.1875 45.4375 C13.13012695 45.88706055 13.13012695 45.88706055 14.09179688 46.34570312 C17.36669027 47.96038318 18.93059272 48.89588908 21 52 C21 58.42705838 18.20666055 62.42511717 14 67 C11.01787087 68.49106457 8.28390342 68.11941467 5 68 C3.11692557 66.11692557 3.63496931 62.78608313 3.4765625 60.2265625 C2.90835484 57.57182178 2.00247753 56.76299548 0 55 C-1.68985894 51.79816201 -2.02375805 50.21778208 -1.625 46.5625 C-1.62261967 43.00646792 -1.62261967 43.00646792 -3.7734375 41.21875 C-5.80040696 39.71096921 -7.84326285 38.3142617 -10 37 C-9.34657328 33.74771699 -8.15017824 31.24362379 -6.5 28.375 C-5.83484375 27.21097656 -5.83484375 27.21097656 -5.15625 26.0234375 C-4.7746875 25.35570313 -4.393125 24.68796875 -4 24 C-2.857759 21.715518 -2.83324024 20.29499802 -2.75390625 17.75390625 C-2.72103516 16.91666016 -2.68816406 16.07941406 -2.65429688 15.21679688 C-2.59323842 13.45129812 -2.53592926 11.68566561 -2.48242188 9.91992188 C-2.44826172 9.08138672 -2.41410156 8.24285156 -2.37890625 7.37890625 C-2.34132202 6.22757202 -2.34132202 6.22757202 -2.30297852 5.05297852 C-2 3 -2 3 0 0 Z " fill="#A0DEF4" transform="translate(29,41)"/>
<path d="M0 0 C2.84625 -0.0825 5.6925 -0.165 8.625 -0.25 C9.51010254 -0.28641602 10.39520508 -0.32283203 11.30712891 -0.36035156 C16.6946415 -0.4355318 19.75911288 0.3724104 24 4 C26.45485943 7.68228915 26.82932584 10.72454348 26 15 C24.55625961 17.3894658 22.99679341 19.00320659 21 21 C21.3609375 21.48210937 21.721875 21.96421875 22.09375 22.4609375 C22.5578125 23.09257813 23.021875 23.72421875 23.5 24.375 C23.9640625 25.00148438 24.428125 25.62796875 24.90625 26.2734375 C26 28 26 28 26 30 C22.8125 30.4375 22.8125 30.4375 19 30 C17.52847073 28.31701931 16.4848262 26.53732875 15.33203125 24.625 C13.92524509 22.57756648 13.92524509 22.57756648 10.1875 22.0625 C9.135625 22.041875 8.08375 22.02125 7 22 C7 24.64 7 27.28 7 30 C4.69 30 2.38 30 0 30 C0 20.1 0 10.2 0 0 Z " fill="#F6F6F6" transform="translate(357,53)"/>
<path d="M0 0 C2.84625 -0.0825 5.6925 -0.165 8.625 -0.25 C9.51010254 -0.28641602 10.39520508 -0.32283203 11.30712891 -0.36035156 C16.6946415 -0.4355318 19.75911288 0.3724104 24 4 C26.48386059 7.72579089 26.3804212 9.58711402 26 14 C24.71378621 16.97860036 23.393203 18.64365978 21 20.8125 C16.40682175 22.63063306 11.87977427 22.23074239 7 22 C7 24.64 7 27.28 7 30 C4.69 30 2.38 30 0 30 C0 20.1 0 10.2 0 0 Z " fill="#F7F7F7" transform="translate(326,53)"/>
<path d="M0 0 C7 0 7 0 8.77270508 1.25341797 C9.18415771 1.82721191 9.59561035 2.40100586 10.01953125 2.9921875 C10.48423828 3.61480469 10.94894531 4.23742188 11.42773438 4.87890625 C11.88470703 5.53761719 12.34167969 6.19632813 12.8125 6.875 C13.75597311 8.16445581 14.69996189 9.45353451 15.64453125 10.7421875 C16.05034424 11.3182373 16.45615723 11.89428711 16.87426758 12.48779297 C18.05931799 14.1559572 18.05931799 14.1559572 20 16 C20.33 10.72 20.66 5.44 21 0 C23.31 0 25.62 0 28 0 C28 9.9 28 19.8 28 30 C22 30 22 30 19.875 28.3125 C19.25625 27.549375 18.6375 26.78625 18 26 C17.3296875 25.18660156 16.659375 24.37320313 15.96875 23.53515625 C13.26510193 20.05367292 10.59293278 16.56528257 8 13 C7.67 18.61 7.34 24.22 7 30 C4.69 30 2.38 30 0 30 C0 20.1 0 10.2 0 0 Z " fill="#F4F4F5" transform="translate(279,53)"/>
<path d="M0 0 C6 0 6 0 7.75097656 1.23754883 C8.20956055 1.80497803 8.66814453 2.37240723 9.140625 2.95703125 C9.65367187 3.57513672 10.16671875 4.19324219 10.6953125 4.83007812 C11.20835937 5.48427734 11.72140625 6.13847656 12.25 6.8125 C12.77851563 7.45509766 13.30703125 8.09769531 13.8515625 8.75976562 C16.04235021 11.44264652 18.07652789 14.11479183 20 17 C20.33 11.39 20.66 5.78 21 0 C22.98 0 24.96 0 27 0 C27 9.9 27 19.8 27 30 C21 30 21 30 18.5859375 27.76953125 C17.85632813 26.79371094 17.12671875 25.81789063 16.375 24.8125 C15.27285156 23.36810547 15.27285156 23.36810547 14.1484375 21.89453125 C13.43945312 20.93933594 12.73046875 19.98414062 12 19 C10.68 17.35 9.36 15.7 8 14 C7.67 19.28 7.34 24.56 7 30 C4.69 30 2.38 30 0 30 C0 20.1 0 10.2 0 0 Z " fill="#FAFAFA" transform="translate(136,53)"/>
<path d="M0 0 C2.86207152 1.28299758 5.0245088 2.530636 7 5 C7 5.99 7 6.98 7 8 C7.598125 8.2475 8.19625 8.495 8.8125 8.75 C13.804303 11.60245886 14.50298376 15.71054262 16 21 C16.66 21.33 17.32 21.66 18 22 C21.43512778 29.57810007 23.72151848 36.63038569 23 45 C24.32 45 25.64 45 27 45 C29.140625 47.51953125 29.140625 47.51953125 31.25 50.8125 C31.95640625 51.89144531 32.6628125 52.97039062 33.390625 54.08203125 C35 57 35 57 35 60 C35.99 60 36.98 60 38 60 C38 57.03 38 54.06 38 51 C38.66 51 39.32 51 40 51 C40.5345256 52.24420647 41.05208611 53.49570936 41.5625 54.75 C41.85253906 55.44609375 42.14257812 56.1421875 42.44140625 56.859375 C43.08177298 59.3133678 42.78066056 60.62182876 42 63 C42 63.33 42 63.66 42 64 C42 65.66666667 42 67.33333333 42 69 C37.3164557 66.34177215 37.3164557 66.34177215 35.4375 64.3125 C33.83210158 62.55048709 33.83210158 62.55048709 30 63 C29.979375 62.0925 29.95875 61.185 29.9375 60.25 C28.89118154 56.62276269 28.54629332 56.36742851 25.4375 54.625 C24.303125 54.08875 23.16875 53.5525 22 53 C22 52.34 22 51.68 22 51 C21.23042969 50.92523438 20.46085937 50.85046875 19.66796875 50.7734375 C17 50 17 50 15.48828125 48.1015625 C11.43624317 39.56670488 10.12350069 31.69731732 9.625 22.3125 C9.16920836 15.90862749 8.1584864 10.76537007 3.1796875 6.40625 C1.5096503 5.18921884 -0.24009614 4.08301776 -2 3 C-1.34 2.01 -0.68 1.02 0 0 Z " fill="#202836" transform="translate(41,27)"/>
<path d="M0 0 C1.134375 0.020625 2.26875 0.04125 3.4375 0.0625 C5.12073215 3.66302321 6.80233031 7.26428731 8.48046875 10.8671875 C9.72660709 13.54215708 10.97923913 16.21389459 12.23828125 18.8828125 C12.77839844 20.03523438 13.31851563 21.18765625 13.875 22.375 C14.36871094 23.42300781 14.86242187 24.47101563 15.37109375 25.55078125 C16.4375 28.0625 16.4375 28.0625 16.4375 30.0625 C13.0625 30.25 13.0625 30.25 9.4375 30.0625 C7.4375 27.0625 7.4375 27.0625 7.4375 24.0625 C2.4875 24.0625 -2.4625 24.0625 -7.5625 24.0625 C-8.2225 26.0425 -8.8825 28.0225 -9.5625 30.0625 C-11.8725 30.0625 -14.1825 30.0625 -16.5625 30.0625 C-14.48508341 23.33093051 -11.86507302 16.96538551 -8.9375 10.5625 C-8.53015625 9.65757813 -8.1228125 8.75265625 -7.703125 7.8203125 C-4.19031258 0.07351426 -4.19031258 0.07351426 0 0 Z " fill="#F2F3F3" transform="translate(183.5625,52.9375)"/>
<path d="M0 0 C7.59 0 15.18 0 23 0 C23 1.98 23 3.96 23 6 C17.72 6 12.44 6 7 6 C7 7.98 7 9.96 7 12 C11.62 12 16.24 12 21 12 C21 13.98 21 15.96 21 18 C16.38 18 11.76 18 7 18 C7 19.98 7 21.96 7 24 C12.28 24 17.56 24 23 24 C23 25.98 23 27.96 23 30 C15.41 30 7.82 30 0 30 C0 20.1 0 10.2 0 0 Z " fill="#F0F1F1" transform="translate(438,53)"/>
<path d="M0 0 C0.99 0 1.98 0 3 0 C3.33 0.66 3.66 1.32 4 2 C4.99 2.66 5.98 3.32 7 4 C6.01 4.495 6.01 4.495 5 5 C5.66 6.32 6.32 7.64 7 9 C5.68 8.34 4.36 7.68 3 7 C3.2475 7.9590625 3.2475 7.9590625 3.5 8.9375 C4.15932515 12.97586652 4.08003779 16.91807258 4 21 C5.32 20.34 6.64 19.68 8 19 C7.67 19.99 7.34 20.98 7 22 C8.65 22.33 10.3 22.66 12 23 C12 22.01 12 21.02 12 20 C12.66 20 13.32 20 14 20 C14 20.66 14 21.32 14 22 C16.97 21.67 19.94 21.34 23 21 C23 17.37 23 13.74 23 10 C21.02 10.33 19.04 10.66 17 11 C19.3125 8.5 19.3125 8.5 22 6 C22.99 6 23.98 6 25 6 C24.67 8.31 24.34 10.62 24 13 C27.3863251 14.50930183 27.3863251 14.50930183 31 15 C29.68 13.68 28.36 12.36 27 11 C28.67667436 11.64108137 30.34089996 12.31471955 32 13 C33.051875 13.433125 34.10375 13.86625 35.1875 14.3125 C38.45951885 16.27571131 39.0085075 17.39457274 40 21 C40.495 22.485 40.495 22.485 41 24 C41.66 24 42.32 24 43 24 C43 24.99 43 25.98 43 27 C41.46875 28.38671875 41.46875 28.38671875 39.5 29.6875 C38.8503125 30.12449219 38.200625 30.56148437 37.53125 31.01171875 C37.0259375 31.33785156 36.520625 31.66398437 36 32 C36.309375 31.443125 36.61875 30.88625 36.9375 30.3125 C38.46197627 26.99452223 39.26886099 24.38271368 38.5625 20.75 C36.35268843 18.27501104 34.15194404 18.51218684 30.9765625 18.28125 C28.36314423 17.90938021 26.88283598 16.80438448 25 15 C24.67 16.98 24.34 18.96 24 21 C24.66 21.33 25.32 21.66 26 22 C25.34 22.99 24.68 23.98 24 25 C23.175 24.814375 22.35 24.62875 21.5 24.4375 C17.38073281 23.9225916 14.09176645 24.36507072 10 25 C9.67 26.32 9.34 27.64 9 29 C8.01 28.34 7.02 27.68 6 27 C5.34 27.66 4.68 28.32 4 29 C4 28.34 4 27.68 4 27 C3.34 27.33 2.68 27.66 2 28 C2 29.65 2 31.3 2 33 C0.68 32.67 -0.64 32.34 -2 32 C-2 31.34 -2 30.68 -2 30 C-3.32 30.33 -4.64 30.66 -6 31 C-1.25 26.125 -1.25 26.125 1 25 C1 23.68 1 22.36 1 21 C1.66 21 2.32 21 3 21 C2.34 16.38 1.68 11.76 1 7 C-3.03685532 11.03685532 -3.52112644 11.7323908 -4 17 C-4.99 17 -5.98 17 -7 17 C-7 18.98 -7 20.96 -7 23 C-7.33 23 -7.66 23 -8 23 C-8 21.02 -8 19.04 -8 17 C-9.32 17.33 -10.64 17.66 -12 18 C-11.67 17.34 -11.34 16.68 -11 16 C-10.34 16 -9.68 16 -9 16 C-9.66 13.69 -10.32 11.38 -11 9 C-12.32 9 -13.64 9 -15 9 C-15.33 9.66 -15.66 10.32 -16 11 C-16.33 9.68 -16.66 8.36 -17 7 C-18.65 7.33 -20.3 7.66 -22 8 C-20.44558627 4.89117254 -18.145717 4.33937318 -15 3 C-11.38671875 2.3046875 -11.38671875 2.3046875 -7.6875 1.875 C-3.51970717 1.72887716 -3.51970717 1.72887716 0 0 Z " fill="#3F5272" transform="translate(68,12)"/>
<path d="M0 0 C8.58 0 17.16 0 26 0 C26 1.98 26 3.96 26 6 C22.7 6 19.4 6 16 6 C16 13.92 16 21.84 16 30 C13.69 30 11.38 30 9 30 C9 22.08 9 14.16 9 6 C6.03 6 3.06 6 0 6 C0 4.02 0 2.04 0 0 Z " fill="#F3F3F3" transform="translate(200,53)"/>
<path d="M0 0 C0.99 0.680625 0.99 0.680625 2 1.375 C4.61434386 2.79110293 6.29168948 3.35724637 9.125 3.9375 C11.86867536 4.57025689 12.8901964 4.90350593 15.0625 6.8125 C16.30082461 9.70192408 16.03202324 11.05136217 15 14 C13.75 16.3125 13.75 16.3125 12 18 C9.375 18.25 9.375 18.25 7 18 C6.67 18 6.34 18 6 18 C6 18.66 6 19.32 6 20 C2.04 20 -1.92 20 -6 20 C-6 19.01 -6 18.02 -6 17 C-6.556875 17.268125 -7.11375 17.53625 -7.6875 17.8125 C-8.450625 17.874375 -9.21375 17.93625 -10 18 C-12.75 15.5625 -12.75 15.5625 -15 13 C-14.67 12.01 -14.34 11.02 -14 10 C-12.04235617 9.80543295 -10.08384679 9.61955753 -8.125 9.4375 C-6.48917969 9.28087891 -6.48917969 9.28087891 -4.8203125 9.12109375 C-2 9 -2 9 0 10 C0 9.01 0 8.02 0 7 C0 4.66666667 0 2.33333333 0 0 Z " fill="#212B39" transform="translate(92,26)"/>
<path d="M0 0 C1.75183594 0.37898438 1.75183594 0.37898438 3.5390625 0.765625 C4.47492188 1.09046875 5.41078125 1.4153125 6.375 1.75 C6.705 2.74 7.035 3.73 7.375 4.75 C7.045 5.08 6.715 5.41 6.375 5.75 C7.365 5.75 8.355 5.75 9.375 5.75 C9.375 9.38 9.375 13.01 9.375 16.75 C6.41835481 18.2283226 3.63270263 17.81032783 0.375 17.75 C0.375 17.09 0.375 16.43 0.375 15.75 C-0.285 15.75 -0.945 15.75 -1.625 15.75 C-1.625 16.74 -1.625 17.73 -1.625 18.75 C-3.605 18.75 -5.585 18.75 -7.625 18.75 C-7.625 18.09 -7.625 17.43 -7.625 16.75 C-8.285 16.75 -8.945 16.75 -9.625 16.75 C-9.955 12.13 -10.285 7.51 -10.625 2.75 C-9.635 2.75 -8.645 2.75 -7.625 2.75 C-8.285 1.76 -8.945 0.77 -9.625 -0.25 C-5.86827929 -1.50224024 -3.84039423 -0.86855923 0 0 Z " fill="#3E4C5E" transform="translate(81.625,16.25)"/>
<path d="M0 0 C3.55247432 0.87379409 4.94828114 2.4927342 6.9375 5.4765625 C7.63619998 8.31717881 7.630647 10.63523266 6.9375 13.4765625 C4.89954536 16.63210517 3.47025134 18.14383 -0.2578125 18.953125 C-4.30129543 19.20667674 -6.37941212 19.00970426 -9.625 16.4765625 C-11.46722331 12.63192254 -12.01521277 9.65838138 -11.0625 5.4765625 C-8.05531939 0.96579158 -5.26030565 -0.3785826 0 0 Z " fill="#222732" transform="translate(260.0625,58.5234375)"/>
<path d="M0 0 C0.33 0.66 0.66 1.32 1 2 C0.34 3.32 -0.32 4.64 -1 6 C2.96 6 6.92 6 11 6 C10.34 4.35 9.68 2.7 9 1 C11.475 2.485 11.475 2.485 14 4 C14.33 3.01 14.66 2.02 15 1 C15 1.99 15 2.98 15 4 C15.66 4 16.32 4 17 4 C17 4.66 17 5.32 17 6 C18.65 6 20.3 6 22 6 C22 6.33 22 6.66 22 7 C20.35 7 18.7 7 17 7 C18.98 9.31 20.96 11.62 23 14 C23 11.69 23 9.38 23 7 C25.75927344 9.75927344 25.51783243 12.21154052 26 16 C26.33 16.33 26.66 16.66 27 17 C27.66 16.34 28.32 15.68 29 15 C29.495 17.97 29.495 17.97 30 21 C28.68 21.33 27.36 21.66 26 22 C25.83126522 23.43725871 25.66509263 24.87481838 25.5 26.3125 C25.36078125 27.51326172 25.36078125 27.51326172 25.21875 28.73828125 C24.95186537 31.11896555 24.95186537 31.11896555 25 34 C24.67 33.67 24.34 33.34 24 33 C23.67 33.99 23.34 34.98 23 36 C19.37 35.67 15.74 35.34 12 35 C12.33 34.34 12.66 33.68 13 33 C16.465 33.495 16.465 33.495 20 34 C20.76956136 31.65466049 20.76956136 31.65466049 21 29 C19.66621425 27.1645201 19.66621425 27.1645201 18 26 C18.33 25.34 18.66 24.68 19 24 C19.99 24.99 20.98 25.98 22 27 C22.66 25.35 23.32 23.7 24 22 C23.01 21.67 22.02 21.34 21 21 C21.99 21 22.98 21 24 21 C24 19.35 24 17.7 24 16 C22.35 16.66 20.7 17.32 19 18 C19.226875 17.401875 19.45375 16.80375 19.6875 16.1875 C20.24322916 13.98263968 20.24322916 13.98263968 18.9375 12.3125 C16.39013522 10.5868658 14.0106168 10.45813734 11 10 C10.67 9.34 10.34 8.68 10 8 C7.03 8 4.06 8 1 8 C2.299375 8.5775 3.59875 9.155 4.9375 9.75 C7.15234375 10.734375 7.15234375 10.734375 9 12 C9.75390625 14.140625 9.75390625 14.140625 10 16 C9.38125 16.144375 8.7625 16.28875 8.125 16.4375 C5.96741678 16.93152225 5.96741678 16.93152225 4 18 C4 17.34 4 16.68 4 16 C1.03 16 -1.94 16 -5 16 C-2.08235 14.0549 -0.37462715 13.54723683 3 13 C1.17751887 10.79383863 0.40509092 10.05063636 -2.5 9.6875 C-5 9 -5 9 -6.75 6.0625 C-7.1625 5.051875 -7.575 4.04125 -8 3 C-8.33 2.34 -8.66 1.68 -9 1 C-8.401875 1.33 -7.80375 1.66 -7.1875 2 C-4.94613529 3.20787988 -4.94613529 3.20787988 -2 3 C-1.34 2.01 -0.68 1.02 0 0 Z " fill="#3A5471" transform="translate(87,40)"/>
<path d="M0 0 C10.30769231 0 10.30769231 0 14 3 C15.61827917 6.23655834 15.56192191 9.50136714 15 13 C13.125 16 13.125 16 10 18 C6.55189604 18.40534963 3.49364097 18.2329094 0 18 C0 12.06 0 6.12 0 0 Z " fill="#1F242F" transform="translate(410,59)"/>
<path d="M0 0 C2.95296904 3.2746762 3.36798389 5.43340254 3.37109375 9.796875 C3.39719727 11.48296875 3.39719727 11.48296875 3.42382812 13.203125 C3.43288243 15.55207166 3.43814232 17.90103626 3.43945312 20.25 C3.55757647 27.38627959 4.43737406 31.8257571 8 38 C7.67 38.66 7.34 39.32 7 40 C1.12904895 39.64774294 -2.00433588 38.37620356 -6 34 C-7.73505283 28.48865571 -6.56034385 24.93485629 -4 20 C-3.6390625 19.32195313 -3.278125 18.64390625 -2.90625 17.9453125 C0.13098172 11.84915455 0.45469107 6.75721453 0 0 Z " fill="#31BCEB" transform="translate(43,43)"/>
<path d="M0 0 C2.64 0 5.28 0 8 0 C8 9.9 8 19.8 8 30 C5.36 30 2.72 30 0 30 C0 20.1 0 10.2 0 0 Z " fill="#E2E3E4" transform="translate(388,53)"/>
<path d="M0 0 C2.64 0 5.28 0 8 0 C8 9.9 8 19.8 8 30 C5.36 30 2.72 30 0 30 C0 20.1 0 10.2 0 0 Z " fill="#E2E3E4" transform="translate(229,53)"/>
<path d="M0 0 C0.66 0 1.32 0 2 0 C3.55057789 6.25357035 4.87909192 11.73636028 3 18 C0.59656364 20.46128712 -1.97368933 22.36616356 -5 24 C-5.66 24 -6.32 24 -7 24 C-7.33 22.68 -7.66 21.36 -8 20 C-8.66 20.99 -9.32 21.98 -10 23 C-14.96139569 17.67557535 -14.96139569 17.67557535 -15.125 14.8125 C-13.00680484 11.39985223 -9.98080717 10.23975286 -6.1875 9.3125 C-5.1046875 9.1578125 -5.1046875 9.1578125 -4 9 C-3.896875 8.2575 -3.79375 7.515 -3.6875 6.75 C-2.95066203 3.8026481 -2.05200858 2.21616926 0 0 Z " fill="#202936" transform="translate(67,19)"/>
<path d="M0 0 C1 3 1 3 0.08203125 5.75 C-1.1117083 9.33552819 -1.30009726 12.22956824 -1.3125 16 C-1.32925781 17.175625 -1.34601562 18.35125 -1.36328125 19.5625 C-0.79676665 24.92306828 1.01003954 28.0530813 4.875 31.75 C7.59515969 33.70851498 9.83404409 34.97572015 13 36 C12.67 36.66 12.34 37.32 12 38 C10.515 38.495 10.515 38.495 9 39 C9.33 39.99 9.66 40.98 10 42 C10.66 42.33 11.32 42.66 12 43 C11.34 43.99 10.68 44.98 10 46 C3.32114033 44.3808825 -0.45244789 38.44613075 -3.9375 32.9375 C-7.67323233 22.68758442 -4.92331359 10.73738072 -1 1 C-0.67 0.67 -0.34 0.34 0 0 Z " fill="#30B7E4" transform="translate(11,76)"/>
<path d="M0 0 C0.66 0.99 1.32 1.98 2 3 C3.32 3 4.64 3 6 3 C8 6 8 6 8 10 C7.01 10.804375 6.02 11.60875 5 12.4375 C1.72732766 14.65533762 1.72732766 14.65533762 1.625 17.8125 C1.74875 18.534375 1.8725 19.25625 2 20 C-2.12491697 17.88179939 -3.68071095 15.93270752 -6 12 C-8.64417414 10.26476072 -9.78465943 10 -13 10 C-12.34 9.34 -11.68 8.68 -11 8 C-11.66 7.67 -12.32 7.34 -13 7 C-13 6.01 -13 5.02 -13 4 C-8.71 2.68 -4.42 1.36 0 0 Z " fill="#395672" transform="translate(51,18)"/>
<path d="M0 0 C0.66 0 1.32 0 2 0 C2.53251766 1.91345327 3.05059483 3.8309295 3.5625 5.75 C3.85253906 6.81734375 4.14257812 7.8846875 4.44140625 8.984375 C4.97661121 11.87373324 5.18984313 13.34527463 4 16 C3.01 16.66 2.02 17.32 1 18 C0.74969023 20.58380177 0.74969023 20.58380177 1 23 C-5.4 27.06153846 -5.4 27.06153846 -8.4375 26.75 C-8.953125 26.5025 -9.46875 26.255 -10 26 C-10.66 23.69 -11.32 21.38 -12 19 C-9.69 19 -7.38 19 -5 19 C-5.28875 18.0925 -5.5775 17.185 -5.875 16.25 C-6.82135034 10.28922191 -2.82768265 4.99147459 0 0 Z " fill="#202733" transform="translate(95,77)"/>
<path d="M0 0 C0.33 0 0.66 0 1 0 C1 5.61 1 11.22 1 17 C0.34 17 -0.32 17 -1 17 C-1.226875 17.556875 -1.45375 18.11375 -1.6875 18.6875 C-3.35876712 21.6321135 -5.60852404 23.60852404 -8 26 C-8.77559226 27.0863428 -9.52673126 28.19064156 -10.25 29.3125 C-10.8275 30.199375 -11.405 31.08625 -12 32 C-12.33 32 -12.66 32 -13 32 C-13.67099984 29.39688008 -14.33695338 26.79264602 -15 24.1875 C-15.19078125 23.44951172 -15.3815625 22.71152344 -15.578125 21.95117188 C-16.35262914 18.89464659 -17 16.16626522 -17 13 C-13.04 13.33 -9.08 13.66 -5 14 C-4.67 12.68 -4.34 11.36 -4 10 C-3.01 10.66 -2.02 11.32 -1 12 C-0.67 8.04 -0.34 4.08 0 0 Z " fill="#41506C" transform="translate(115,62)"/>
<path d="M0 0 C-0.33 2.31 -0.66 4.62 -1 7 C2.3863251 8.50930183 2.3863251 8.50930183 6 9 C4.68 7.68 3.36 6.36 2 5 C3.67667436 5.64108137 5.34089996 6.31471955 7 7 C8.051875 7.433125 9.10375 7.86625 10.1875 8.3125 C13.45951885 10.27571131 14.0085075 11.39457274 15 15 C15.495 16.485 15.495 16.485 16 18 C16.66 18 17.32 18 18 18 C18 18.99 18 19.98 18 21 C16.46875 22.38671875 16.46875 22.38671875 14.5 23.6875 C13.8503125 24.12449219 13.200625 24.56148437 12.53125 25.01171875 C12.0259375 25.33785156 11.520625 25.66398437 11 26 C11.309375 25.443125 11.61875 24.88625 11.9375 24.3125 C13.46197627 20.99452223 14.26886099 18.38271368 13.5625 14.75 C11.35268843 12.27501104 9.15194404 12.51218684 5.9765625 12.28125 C3.36314423 11.90938021 1.88283598 10.80438448 0 9 C-0.33 10.98 -0.66 12.96 -1 15 C-0.34 15.33 0.32 15.66 1 16 C0.34 16.99 -0.32 17.98 -1 19 C-1.825 18.814375 -2.65 18.62875 -3.5 18.4375 C-7.61926719 17.9225916 -10.90823355 18.36507072 -15 19 C-15.33 20.32 -15.66 21.64 -16 23 C-16.99 22.34 -17.98 21.68 -19 21 C-19.66 21.66 -20.32 22.32 -21 23 C-21 22.34 -21 21.68 -21 21 C-21.66 21.33 -22.32 21.66 -23 22 C-23 23.65 -23 25.3 -23 27 C-24.32 26.67 -25.64 26.34 -27 26 C-27 25.34 -27 24.68 -27 24 C-28.32 24.33 -29.64 24.66 -31 25 C-28.14723863 22.06799526 -25.34920216 19.35684596 -22 17 C-22 17.66 -22 18.32 -22 19 C-21.443125 18.67 -20.88625 18.34 -20.3125 18 C-17.69715478 16.8690399 -15.8193354 16.84337026 -13 17 C-13 16.01 -13 15.02 -13 14 C-12.34 14 -11.68 14 -11 14 C-11 14.66 -11 15.32 -11 16 C-6.545 15.505 -6.545 15.505 -2 15 C-2 11.37 -2 7.74 -2 4 C-3.98 4.33 -5.96 4.66 -8 5 C-3.375 0 -3.375 0 0 0 Z " fill="#2D4663" transform="translate(93,18)"/>
<path d="M0 0 C0.33 0 0.66 0 1 0 C1 2.31 1 4.62 1 7 C1.66 7.33 2.32 7.66 3 8 C3 8.33 3 8.66 3 9 C6.63 9.66 10.26 10.32 14 11 C14.33 9.68 14.66 8.36 15 7 C16.13764351 11.26616316 17 14.56486311 17 19 C17.66 19 18.32 19 19 19 C19 20.32 19 21.64 19 23 C18.01 23 17.02 23 16 23 C15.505 18.05 15.505 18.05 15 13 C13.31635626 14.18456363 11.65347286 15.3986743 10 16.625 C9.071875 17.29789063 8.14375 17.97078125 7.1875 18.6640625 C4.67607514 20.86906872 4.67607514 20.86906872 4.6875 24.2734375 C4.790625 25.17320313 4.89375 26.07296875 5 27 C3.37723842 24.56585763 2.38255208 22.68680554 1.375 20 C1.11460938 19.319375 0.85421875 18.63875 0.5859375 17.9375 C0 16 0 16 0 13 C-0.63421875 12.76539063 -1.2684375 12.53078125 -1.921875 12.2890625 C-4 11 -4 11 -4.828125 8.8359375 C-4.96734375 8.02382813 -5.1065625 7.21171875 -5.25 6.375 C-5.39953125 5.55773438 -5.5490625 4.74046875 -5.703125 3.8984375 C-5.80109375 3.27195313 -5.8990625 2.64546875 -6 2 C-4.68 2.99 -3.36 3.98 -2 5 C-1.34 3.35 -0.68 1.7 0 0 Z " fill="#505175" transform="translate(59,36)"/>
<path d="M0 0 C6 6.27522936 6 6.27522936 6 10 C2.04 10 -1.92 10 -6 10 C-6 9.01 -6 8.02 -6 7 C-6.556875 7.268125 -7.11375 7.53625 -7.6875 7.8125 C-8.450625 7.874375 -9.21375 7.93625 -10 8 C-12.75 5.5625 -12.75 5.5625 -15 3 C-14.67 2.01 -14.34 1.02 -14 0 C-4.14 -1.53 -4.14 -1.53 0 0 Z " fill="#1F2734" transform="translate(92,36)"/>
<path d="M0 0 C0.66 0 1.32 0 2 0 C3.17571451 3.67410785 3.07366746 7.16929183 3 11 C1.10787298 11.53414112 -0.78891636 12.05178329 -2.6875 12.5625 C-3.74324219 12.85253906 -4.79898438 13.14257812 -5.88671875 13.44140625 C-10.85308949 14.33248657 -14.44860887 12.9505962 -19 11 C-18.46503906 10.73316406 -17.93007813 10.46632813 -17.37890625 10.19140625 C-15.6138536 9.30743079 -13.85120029 8.41866109 -12.08984375 7.52734375 C-11.04957031 7.00269531 -10.00929688 6.47804688 -8.9375 5.9375 C-7.37322266 5.14666016 -7.37322266 5.14666016 -5.77734375 4.33984375 C-3 3 -3 3 0 2 C0 1.34 0 0.68 0 0 Z " fill="#2598C7" transform="translate(65,100)"/>
<path d="M0 0 C2.5 2.1875 2.5 2.1875 4 5 C3.75 8.3125 3.75 8.3125 3 11 C1.72125 10.896875 0.4425 10.79375 -0.875 10.6875 C-1.95394531 10.60048828 -1.95394531 10.60048828 -3.0546875 10.51171875 C-5 10 -5 10 -7 7 C-8.32 7 -9.64 7 -11 7 C-15 2.77777778 -15 2.77777778 -15 0 C-9.75579216 -0.82803282 -5.21548179 -1.40416817 0 0 Z " fill="#202836" transform="translate(105,64)"/>
<path d="M0 0 C2.64 1.65 5.28 3.3 8 5 C7.67 6.32 7.34 7.64 7 9 C4.625 9.625 4.625 9.625 2 10 C1.34 9.34 0.68 8.68 0 8 C-2.57061311 7.35232207 -2.57061311 7.35232207 -5 7 C-5.28875 7.7425 -5.5775 8.485 -5.875 9.25 C-7 12 -7 12 -8.04882812 13.89208984 C-9.10836772 16.24015578 -9.28086732 17.91192475 -9.34375 20.4765625 C-9.37339844 21.311875 -9.40304688 22.1471875 -9.43359375 23.0078125 C-9.47806268 24.76041165 -9.52233176 26.51301588 -9.56640625 28.265625 C-9.59605469 29.09835938 -9.62570313 29.93109375 -9.65625 30.7890625 C-9.67494141 31.54912598 -9.69363281 32.30918945 -9.71289062 33.09228516 C-10 35 -10 35 -12 37 C-12.1174875 33.66696997 -12.18767324 30.33448163 -12.25 27 C-12.28351562 26.06542969 -12.31703125 25.13085938 -12.3515625 24.16796875 C-12.45971277 16.43522431 -10.85994659 11.38183465 -5.859375 5.46875 C-5.16328125 4.8190625 -4.4671875 4.169375 -3.75 3.5 C-2.69039062 2.49453125 -2.69039062 2.49453125 -1.609375 1.46875 C-1.07828125 0.9840625 -0.5471875 0.499375 0 0 Z " fill="#0A4871" transform="translate(37,28)"/>
<path d="M0 0 C1.51400391 0.01740234 1.51400391 0.01740234 3.05859375 0.03515625 C4.07050781 0.04417969 5.08242187 0.05320312 6.125 0.0625 C7.29869141 0.07990234 7.29869141 0.07990234 8.49609375 0.09765625 C8.02022259 6.12535763 5.29886418 10.86443914 2.49609375 16.09765625 C1.83609375 16.09765625 1.17609375 16.09765625 0.49609375 16.09765625 C-0.18147507 14.53985293 -0.84550082 12.97615529 -1.50390625 11.41015625 C-1.87515625 10.54003906 -2.24640625 9.66992188 -2.62890625 8.7734375 C-3.52871356 6.0217946 -3.7454389 3.9708884 -3.50390625 1.09765625 C-2.50390625 0.09765625 -2.50390625 0.09765625 0 0 Z " fill="#212B3A" transform="translate(85.50390625,73.90234375)"/>
<path d="M0 0 C3.05606386 5.04914899 4.21231626 10.12591685 4 16 C3.34 16.99 2.68 17.98 2 19 C-0.5654594 16.4345406 -0.54046087 14.52313332 -1 11 C-1 12.65 -1 14.3 -1 16 C-7.69952305 11.02662957 -7.69952305 11.02662957 -8.75 7.4375 C-7.38528843 3.00218739 -4.7236326 0 0 0 Z " fill="#2D547B" transform="translate(112,39)"/>
<path d="M0 0 C3.16115776 1.36983503 3.9927092 1.9890638 6 5 C5.34 5 4.68 5 4 5 C4 5.99 4 6.98 4 8 C5.65 7.34 7.3 6.68 9 6 C9.28571429 14.57142857 9.28571429 14.57142857 7 18 C6.63261719 17.52949219 6.26523438 17.05898437 5.88671875 16.57421875 C3.30595609 14.4209116 1.11577474 14.27424808 -2.1875 13.8125 C-3.27417969 13.65394531 -4.36085938 13.49539062 -5.48046875 13.33203125 C-6.31191406 13.22246094 -7.14335938 13.11289062 -8 13 C-8 12.67 -8 12.34 -8 12 C-4.535 11.505 -4.535 11.505 -1 11 C-1.66 10.01 -2.32 9.02 -3 8 C-2.34 8 -1.68 8 -1 8 C-1.020625 6.865625 -1.04125 5.73125 -1.0625 4.5625 C-1 1 -1 1 0 0 Z " fill="#2A4D71" transform="translate(102,50)"/>
<path d="M0 0 C8.625 -0.25 8.625 -0.25 12 2 C12.375 5 12.375 5 12 8 C7.7975546 10.80163026 4.99895065 10.14489712 0 10 C0 6.7 0 3.4 0 0 Z " fill="#272B36" transform="translate(364,59)"/>
<path d="M0 0 C1.423125 -0.061875 2.84625 -0.12375 4.3125 -0.1875 C5.51326172 -0.23970703 5.51326172 -0.23970703 6.73828125 -0.29296875 C9 0 9 0 10.8046875 1.31640625 C12 3 12 3 11.8125 6.125 C11.544375 7.07375 11.27625 8.0225 11 9 C7.57067929 10.71466036 3.78283935 10.05404056 0 10 C0 6.7 0 3.4 0 0 Z " fill="#232732" transform="translate(333,59)"/>
<path d="M0 0 C2.5 1.25 2.5 1.25 5 3 C5 4.32 5 5.64 5 7 C7.97 7 10.94 7 14 7 C13.01 8.485 13.01 8.485 12 10 C12.33 10.556875 12.66 11.11375 13 11.6875 C14.1309601 14.30284522 14.15662974 16.1806646 14 19 C11 19 11 19 9.17578125 17.3203125 C8.56089844 16.59585938 7.94601563 15.87140625 7.3125 15.125 C6.68988281 14.40570313 6.06726563 13.68640625 5.42578125 12.9453125 C4 11 4 11 4 9 C2.68 9 1.36 9 0 9 C0 6.03 0 3.06 0 0 Z " fill="#444D71" transform="translate(64,63)"/>
<path d="M0 0 C0.66 0 1.32 0 2 0 C2.5345256 1.24420647 3.05208611 2.49570936 3.5625 3.75 C3.85253906 4.44609375 4.14257812 5.1421875 4.44140625 5.859375 C5.08177298 8.3133678 4.78066056 9.62182876 4 12 C4 12.33 4 12.66 4 13 C4 14.66666667 4 16.33333333 4 18 C-0.6835443 15.34177215 -0.6835443 15.34177215 -2.5625 13.3125 C-4.16789842 11.55048709 -4.16789842 11.55048709 -8 12 C-8.33 11.01 -8.66 10.02 -9 9 C-8.34 8.34 -7.68 7.68 -7 7 C-6.34 7.33 -5.68 7.66 -5 8 C-4.34 7.34 -3.68 6.68 -3 6 C-3 6.99 -3 7.98 -3 9 C-2.01 9 -1.02 9 0 9 C0 6.03 0 3.06 0 0 Z " fill="#214361" transform="translate(79,78)"/>
<path d="M0 0 C0.33 0.99 0.66 1.98 1 3 C-0.16047607 4.89456511 -1.53981656 6.48483511 -2.96875 8.18359375 C-4.19921941 9.9582704 -4.19921941 9.9582704 -3.84375 12.1015625 C-3.04912496 14.35606111 -3.04912496 14.35606111 0 15.9375 C3 18 3 18 3.8125 20.5 C3.874375 21.325 3.93625 22.15 4 23 C4.91418086 27.17911248 5.926436 30.926436 9 34 C9.34375 36.05859375 9.34375 36.05859375 9.5 38.4375 C9.73068183 41.93809684 9.96150563 42.94225845 12 46 C8.125 44.125 8.125 44.125 7 43 C6.896875 41.824375 6.79375 40.64875 6.6875 39.4375 C6.24316637 35.38022403 4.92411493 32.39438097 2.9375 28.859375 C1.2117883 25.43671345 1 22.86642008 1 19 C-2.465 17.02 -2.465 17.02 -6 15 C-6.88229454 9.26508549 -4.50103025 6.23061188 -1.3125 1.7578125 C-0.6628125 0.88769531 -0.6628125 0.88769531 0 0 Z " fill="#2A5470" transform="translate(24,65)"/>
<path d="M0 0 C0.33 0.66 0.66 1.32 1 2 C0.34 3.32 -0.32 4.64 -1 6 C2.63 6 6.26 6 10 6 C10 6.33 10 6.66 10 7 C5.545 7.495 5.545 7.495 1 8 C2.299375 8.5775 3.59875 9.155 4.9375 9.75 C7.15234375 10.734375 7.15234375 10.734375 9 12 C9.75390625 14.140625 9.75390625 14.140625 10 16 C9.38125 16.144375 8.7625 16.28875 8.125 16.4375 C5.96741678 16.93152225 5.96741678 16.93152225 4 18 C4 17.34 4 16.68 4 16 C1.03 16 -1.94 16 -5 16 C-2.08235 14.0549 -0.37462715 13.54723683 3 13 C1.17751887 10.79383863 0.40509092 10.05063636 -2.5 9.6875 C-5 9 -5 9 -6.75 6.0625 C-7.1625 5.051875 -7.575 4.04125 -8 3 C-8.33 2.34 -8.66 1.68 -9 1 C-8.401875 1.33 -7.80375 1.66 -7.1875 2 C-4.94613529 3.20787988 -4.94613529 3.20787988 -2 3 C-1.34 2.01 -0.68 1.02 0 0 Z " fill="#3C5577" transform="translate(87,40)"/>
<path d="M0 0 C0.33 0 0.66 0 1 0 C1.12117188 0.66386719 1.24234375 1.32773438 1.3671875 2.01171875 C1.53476563 2.89472656 1.70234375 3.77773437 1.875 4.6875 C2.03742188 5.55761719 2.19984375 6.42773438 2.3671875 7.32421875 C3.03636846 10.44794526 3.03636846 10.44794526 5 15 C8.465 10.05 8.465 10.05 12 5 C12 9.00886968 10.20983245 10.71873364 8 14 C7.29485154 16.14733927 7.29485154 16.14733927 7 18 C6 20 6 20 4.15234375 20.6328125 C3.05599609 20.87644531 3.05599609 20.87644531 1.9375 21.125 C1.20402344 21.29257813 0.47054687 21.46015625 -0.28515625 21.6328125 C-0.85105469 21.75398438 -1.41695313 21.87515625 -2 22 C-2 20.35 -2 18.7 -2 17 C-2.99 16.67 -3.98 16.34 -5 16 C-3.02 15.34 -1.04 14.68 1 14 C0.84402344 13.07316406 0.68804687 12.14632812 0.52734375 11.19140625 C0.23537109 9.39509766 0.23537109 9.39509766 -0.0625 7.5625 C-0.25972656 6.36753906 -0.45695312 5.17257813 -0.66015625 3.94140625 C-0.77230469 2.97074219 -0.88445312 2.00007813 -1 1 C-0.67 0.67 -0.34 0.34 0 0 Z " fill="#3D516F" transform="translate(98,78)"/>
<path d="M0 0 C0.763125 0.20625 1.52625 0.4125 2.3125 0.625 C2.30089844 1.20507812 2.28929688 1.78515625 2.27734375 2.3828125 C2.22487826 6.9248246 2.39498937 11.15213569 3.3125 15.625 C1.3674 12.70735 0.85973683 10.99962715 0.3125 7.625 C-0.3475 7.625 -1.0075 7.625 -1.6875 7.625 C-1.6875 10.595 -1.6875 13.565 -1.6875 16.625 C-2.6775 16.625 -3.6675 16.625 -4.6875 16.625 C-7.91015625 11.3515625 -7.91015625 11.3515625 -8.6875 9.625 C-8.3575 8.965 -8.0275 8.305 -7.6875 7.625 C-6.3675 8.945 -5.0475 10.265 -3.6875 11.625 C-3.46713136 7.76854879 -4.08394899 5.13276784 -5.6875 1.625 C-2.6875 -0.375 -2.6875 -0.375 0 0 Z " fill="#2C567F" transform="translate(80.6875,70.375)"/>
<path d="M0 0 C1 3 1 3 0.0625 5.546875 C-1.36525161 10.18706773 -1.13883556 14.43240604 -1 19.25 C-0.94910376 21.04663726 -0.90699537 22.84355178 -0.875 24.640625 C-0.85179687 25.42985352 -0.82859375 26.21908203 -0.8046875 27.03222656 C-1 29 -1 29 -3 31 C-6.12942356 27.87057644 -5.37308068 24.44297649 -5.37670898 20.17919922 C-5.24305863 14.04588972 -4.50992566 4.50992566 0 0 Z " fill="#359FC3" transform="translate(11,76)"/>
<path d="M0 0 C0.99 0.680625 0.99 0.680625 2 1.375 C4.61434386 2.79110293 6.29168948 3.35724637 9.125 3.9375 C11.86867536 4.57025689 12.8901964 4.90350593 15.0625 6.8125 C16.25584046 9.59696108 15.87146773 11.1479238 15 14 C14.01 13.01 13.02 12.02 12 11 C11.01 11.495 11.01 11.495 10 12 C10 10.35 10 8.7 10 7 C8.72125 7.185625 7.4425 7.37125 6.125 7.5625 C2.25 8.125 2.25 8.125 0 7 C0 4.69 0 2.38 0 0 Z " fill="#32475E" transform="translate(92,26)"/>
<path d="M0 0 C2.97 0.33 5.94 0.66 9 1 C8.39254603 5.85963179 6.27241033 9.7405518 4 14 C3.34 13.67 2.68 13.34 2 13 C1.3671875 10.05859375 1.3671875 10.05859375 0.875 6.4375 C0.70742187 5.23996094 0.53984375 4.04242188 0.3671875 2.80859375 C0.24601562 1.88175781 0.12484375 0.95492187 0 0 Z " fill="#202632" transform="translate(98,75)"/>
<path d="M0 0 C0.33 3.3 0.66 6.6 1 10 C-4.625 11.125 -4.625 11.125 -8 10 C-7.61508669 5.50934475 -5.14531178 0 0 0 Z " fill="#202633" transform="translate(77,60)"/>
<path d="M0 0 C1.67667436 0.64108137 3.34089996 1.31471955 5 2 C6.051875 2.433125 7.10375 2.86625 8.1875 3.3125 C11.45951885 5.27571131 12.0085075 6.39457274 13 10 C13.33 10.99 13.66 11.98 14 13 C14.66 13 15.32 13 16 13 C16 13.99 16 14.98 16 16 C14.46875 17.38671875 14.46875 17.38671875 12.5 18.6875 C11.8503125 19.12449219 11.200625 19.56148437 10.53125 20.01171875 C9.77328125 20.50091797 9.77328125 20.50091797 9 21 C9.309375 20.443125 9.61875 19.88625 9.9375 19.3125 C11.46197627 15.99452223 12.26886099 13.38271368 11.5625 9.75 C9.34894461 7.27081796 7.21236459 7.6334378 4.04296875 7.4140625 C0.71018251 6.73858384 -0.91621445 4.53961363 -3 2 C-1.824375 2.495 -1.824375 2.495 -0.625 3 C1.84332497 4.11866511 1.84332497 4.11866511 4 4 C2.68 2.68 1.36 1.36 0 0 Z " fill="#5C5B7A" transform="translate(95,23)"/>
<path d="M0 0 C0.66 0 1.32 0 2 0 C2.33820166 1.5823006 2.67035939 3.16589375 3 4.75 C3.185625 5.63171875 3.37125 6.5134375 3.5625 7.421875 C4 10 4 10 4 14 C1.04590299 12.62845496 -1.44008376 11.01136276 -4 9 C-3.4739075 5.21213403 -2.61896089 2.82847776 0 0 Z " fill="#1F2531" transform="translate(67,19)"/>
<path d="M0 0 C0 3.63 0 7.26 0 11 C-3.50627392 9.24686304 -6.09334705 7.58369151 -9 5 C-9 4.34 -9 3.68 -9 3 C-3.375 0 -3.375 0 0 0 Z " fill="#252F3D" transform="translate(91,22)"/>
<path d="M0 0 C1.65 0 3.3 0 5 0 C4.41189246 4.24277581 1.91470967 7.34847399 -0.5 10.75 C-0.91636719 11.35199219 -1.33273438 11.95398438 -1.76171875 12.57421875 C-2.81068693 14.07128985 -3.90185348 15.5386204 -5 17 C-5.33 17 -5.66 17 -6 17 C-6.40504471 12.45168539 -5.10663029 9.68131992 -3 5.6875 C-2.443125 4.61886719 -1.88625 3.55023438 -1.3125 2.44921875 C-0.879375 1.64097656 -0.44625 0.83273438 0 0 Z " fill="#202632" transform="translate(108,77)"/>
<path d="M0 0 C-0.11442461 1.60495567 -0.24194694 3.20898119 -0.375 4.8125 C-0.44460937 5.70582031 -0.51421875 6.59914063 -0.5859375 7.51953125 C-1 10 -1 10 -3 13 C-7.96139569 7.67557535 -7.96139569 7.67557535 -8.125 4.8125 C-6.27964423 1.83942681 -3.54061431 0 0 0 Z " fill="#1E2531" transform="translate(60,29)"/>
<path d="M0 0 C0 3 0 3 -1.37695312 4.7175293 C-2.00537109 5.33023682 -2.63378906 5.94294434 -3.28125 6.57421875 C-3.95800781 7.24130859 -4.63476562 7.90839844 -5.33203125 8.59570312 C-6.04746094 9.28599609 -6.76289062 9.97628906 -7.5 10.6875 C-8.57314453 11.7403418 -8.57314453 11.7403418 -9.66796875 12.81445312 C-11.43879577 14.54986361 -13.21623456 16.2779073 -15 18 C-15.33 17.34 -15.66 16.68 -16 16 C-17.65 16 -19.3 16 -21 16 C-21 15.67 -21 15.34 -21 15 C-19.35 15 -17.7 15 -16 15 C-15.79375 14.43539062 -15.5875 13.87078125 -15.375 13.2890625 C-13.51255848 10.18852064 -10.90006284 8.42693126 -8 6.375 C-3.82493515 3.40148021 -3.82493515 3.40148021 0 0 Z " fill="#38ABD7" transform="translate(120,83)"/>
<path d="M0 0 C0.33 0.99 0.66 1.98 1 3 C0.37351562 4.01449219 -0.25296875 5.02898438 -0.8984375 6.07421875 C-3.62735204 10.53598229 -3.59350078 14.68994008 -3.625 19.8125 C-3.65045691 21.50665741 -3.68391735 23.20071934 -3.7265625 24.89453125 C-3.73252441 25.63550049 -3.73848633 26.37646973 -3.74462891 27.13989258 C-4 29 -4 29 -6 31 C-6.1174875 27.66696997 -6.18767324 24.33448163 -6.25 21 C-6.28351562 20.06542969 -6.31703125 19.13085938 -6.3515625 18.16796875 C-6.43962922 11.87119815 -5.58173856 7.258928 -2 2 C-1.34 1.34 -0.68 0.68 0 0 Z " fill="#224D6B" transform="translate(31,34)"/>
<path d="M0 0 C1.98 0.99 1.98 0.99 4 2 C4.33 2.99 4.66 3.98 5 5 C5.66 5 6.32 5 7 5 C6.4739075 8.78786597 5.61896089 11.17152224 3 14 C2.34 14 1.68 14 1 14 C0.67 9.38 0.34 4.76 0 0 Z " fill="#1F2632" transform="translate(71,19)"/>
<path d="M0 0 C1.32 0 2.64 0 4 0 C4 5.61 4 11.22 4 17 C-1.99470899 11.00529101 -1.99470899 11.00529101 -2.01171875 7.7734375 C-1.85123047 6.58621094 -1.85123047 6.58621094 -1.6875 5.375 C-1.58824219 4.57835938 -1.48898438 3.78171875 -1.38671875 2.9609375 C-1 1 -1 1 0 0 Z " fill="#2A2D3B" transform="translate(113,61)"/>
<path d="M0 0 C3.63 0 7.26 0 11 0 C9.47524303 3.04951395 8.07114674 5.36399506 6 8 C4.68 7.67 3.36 7.34 2 7 C1.34 4.69 0.68 2.38 0 0 Z " fill="#1F2531" transform="translate(63,58)"/>
<path d="M0 0 C1.258125 -0.04125 2.51625 -0.0825 3.8125 -0.125 C4.52019531 -0.14820313 5.22789063 -0.17140625 5.95703125 -0.1953125 C8 0 8 0 11 2 C8.36 4.31 5.72 6.62 3 9 C0.23776722 6.23776722 0.42143709 3.79293383 0 0 Z " fill="#202633" transform="translate(60,47)"/>
<path d="M0 0 C2.74148672 0.37047118 4.58593199 0.68587944 6.8125 2.375 C8 4 8 4 8 7 C6.54257537 7.08096803 5.08387193 7.13917774 3.625 7.1875 C2.81289062 7.22230469 2.00078125 7.25710937 1.1640625 7.29296875 C0.44992188 7.19628906 -0.26421875 7.09960938 -1 7 C-1.66 6.01 -2.32 5.02 -3 4 C-2.01 2.68 -1.02 1.36 0 0 Z " fill="#1F2634" transform="translate(85,66)"/>
<path d="M0 0 C0.33 0.66 0.66 1.32 1 2 C-3.69113047 3.34559608 -8.27862395 3.18407258 -13.125 3.1875 C-14.50365234 3.20586914 -14.50365234 3.20586914 -15.91015625 3.22460938 C-17.22693359 3.22750977 -17.22693359 3.22750977 -18.5703125 3.23046875 C-19.37227051 3.23457764 -20.17422852 3.23868652 -21.00048828 3.24291992 C-23 3 -23 3 -25 1 C-20.71 1.33 -16.42 1.66 -12 2 C-12 1.34 -12 0.68 -12 0 C-7.69211856 -0.92311745 -4.29105809 -1.09771253 0 0 Z " fill="#325365" transform="translate(51,112)"/>
<path d="M0 0 C1.65 0.99 3.3 1.98 5 3 C5.33 2.01 5.66 1.02 6 0 C6 0.99 6 1.98 6 3 C6.66 3 7.32 3 8 3 C8 3.66 8 4.32 8 5 C9.65 5 11.3 5 13 5 C13 5.33 13 5.66 13 6 C11.35 6 9.7 6 8 6 C8 6.99 8 7.98 8 9 C5 10 5 10 2 9 C1.26953125 6.93359375 1.26953125 6.93359375 0.8125 4.4375 C0.65394531 3.61121094 0.49539062 2.78492188 0.33203125 1.93359375 C0.16767578 0.97646484 0.16767578 0.97646484 0 0 Z " fill="#66557C" transform="translate(96,41)"/>
<path d="M0 0 C3.98124127 0.44236014 6.82980998 2.69440726 10 5 C10 5.33 10 5.66 10 6 C7.69 6 5.38 6 3 6 C3 5.34 3 4.68 3 4 C2.34 4 1.68 4 1 4 C1 4.99 1 5.98 1 7 C-0.98 7 -2.96 7 -5 7 C-1.125 1.125 -1.125 1.125 0 0 Z " fill="#202632" transform="translate(79,28)"/>
<path d="M0 0 C1.32 0 2.64 0 4 0 C6 3 6 3 6 7 C2.04 8.98 2.04 8.98 -2 11 C-1.34 7.37 -0.68 3.74 0 0 Z " fill="#1F2632" transform="translate(53,21)"/>
<path d="M0 0 C2.84472327 1.05131077 3.88205778 1.8985657 5.875 4.0625 C4.29585985 4.59591184 2.71145613 5.11375763 1.125 5.625 C0.24328125 5.91503906 -0.6384375 6.20507812 -1.546875 6.50390625 C-4.20334316 7.07947435 -5.59531106 6.95498371 -8.125 6.0625 C-3.97350993 0.0794702 -3.97350993 0.0794702 0 0 Z " fill="#1F2531" transform="translate(86.125,48.9375)"/>
<path d="M0 0 C6.57209302 1.46046512 6.57209302 1.46046512 8.4375 3.8125 C9.07442486 6.28943001 9.14152557 8.45253973 9 11 C8.01 11 7.02 11 6 11 C4.39453125 9.1015625 4.39453125 9.1015625 2.8125 6.625 C2.01779297 5.40683594 2.01779297 5.40683594 1.20703125 4.1640625 C0 2 0 2 0 0 Z " fill="#202734" transform="translate(69,71)"/>
<path d="M0 0 C2.83374881 3.20336822 3.5205537 5.78087253 4 10 C1.36 10 -1.28 10 -4 10 C-3.52449439 8.51965236 -3.04448784 7.04074979 -2.5625 5.5625 C-2.29566406 4.73878906 -2.02882812 3.91507812 -1.75390625 3.06640625 C-1 1 -1 1 0 0 Z " fill="#292E39" transform="translate(183,61)"/>
<path d="M0 0 C1.65 1.65 3.3 3.3 5 5 C4.34 5 3.68 5 3 5 C3 5.99 3 6.98 3 8 C4.65 7.34 6.3 6.68 8 6 C8 7.65 8 9.3 8 11 C5.69 11 3.38 11 1 11 C-0.17571451 7.32589215 -0.07366746 3.83070817 0 0 Z " fill="#1F2531" transform="translate(103,50)"/>
<path d="M0 0 C0.33 0.99 0.66 1.98 1 3 C-0.75 5.6875 -0.75 5.6875 -3 8 C-3.99 8 -4.98 8 -6 8 C-6.33 5.36 -6.66 2.72 -7 0 C-3.89953913 -1.03348696 -2.94389782 -1.17755913 0 0 Z " fill="#25364B" transform="translate(82,47)"/>
<path d="M0 0 C-0.33 4.95 -0.66 9.9 -1 15 C-0.34 15.33 0.32 15.66 1 16 C0.34 16.99 -0.32 17.98 -1 19 C-1.99 18.34 -2.98 17.68 -4 17 C-4 16.34 -4 15.68 -4 15 C-3.34 15 -2.68 15 -2 15 C-2 11.37 -2 7.74 -2 4 C-3.98 4.33 -5.96 4.66 -8 5 C-3.375 0 -3.375 0 0 0 Z " fill="#246DAD" transform="translate(93,18)"/>
<path d="M0 0 C0.66 0 1.32 0 2 0 C2.33 2.31 2.66 4.62 3 7 C-0.3 7 -3.6 7 -7 7 C-4.66666667 4.66666667 -2.33333333 2.33333333 0 0 Z " fill="#1F2633" transform="translate(72,49)"/>
<path d="M0 0 C1.98 0.99 3.96 1.98 6 3 C6.125 5.375 6.125 5.375 6 8 C5.34 8.66 4.68 9.32 4 10 C3.01 10 2.02 10 1 10 C0.67 6.7 0.34 3.4 0 0 Z " fill="#1F2633" transform="translate(78,59)"/>
<path d="M0 0 C2.3125 -0.25 2.3125 -0.25 5 0 C6.8125 2 6.8125 2 8 4 C7.34 4 6.68 4 6 4 C5.67 4.99 5.34 5.98 5 7 C3.35 6.67 1.7 6.34 0 6 C0 4.02 0 2.04 0 0 Z " fill="#222A37" transform="translate(61,29)"/>
<path d="M0 0 C1.74410156 0.41185547 1.74410156 0.41185547 3.5234375 0.83203125 C5.27527344 1.22455078 5.27527344 1.22455078 7.0625 1.625 C7.99835938 1.96144531 8.93421875 2.29789063 9.8984375 2.64453125 C10.2284375 3.63453125 10.5584375 4.62453125 10.8984375 5.64453125 C4.85042679 5.09471209 -0.40757356 3.74023551 -6.1015625 1.64453125 C-3.1015625 -0.35546875 -3.1015625 -0.35546875 0 0 Z " fill="#293B51" transform="translate(78.1015625,15.35546875)"/>
<path d="M0 0 C0 0.99 0 1.98 0 3 C-8.261959 7.59225513 -8.261959 7.59225513 -13 7 C-13 6.01 -13 5.02 -13 4 C-8.71 2.68 -4.42 1.36 0 0 Z " fill="#333C52" transform="translate(51,18)"/>
<path d="M0 0 C2.76390737 2.40339772 3.04065919 3.16263678 4 7 C1.03 7 -1.94 7 -5 7 C-3.38262276 3.76524552 -2.52370777 2.29427979 0 0 Z " fill="#272E3B" transform="translate(109,39)"/>
<path d="M0 0 C-1.32 0.33 -2.64 0.66 -4 1 C-3.21625 1.763125 -2.4325 2.52625 -1.625 3.3125 C1 6 1 6 3 9 C0.08482708 7.92598892 -1.77810176 7.22189824 -4 5 C-6.26274788 5.35355436 -7.95088852 5.97544426 -10 7 C-9.34 4.69 -8.68 2.38 -8 0 C-4.71303767 -0.79953138 -3.28976808 -1.09658936 0 0 Z " fill="#455477" transform="translate(86,24)"/>
<path d="M0 0 C0.66 0.33 1.32 0.66 2 1 C0.5625 3 0.5625 3 -2 5 C-5.02824418 5.35442445 -7.96485939 5.23347235 -11 5 C-11.33 4.01 -11.66 3.02 -12 2 C-10.95199219 1.90912109 -10.95199219 1.90912109 -9.8828125 1.81640625 C-8.97273438 1.73261719 -8.06265625 1.64882812 -7.125 1.5625 C-6.22007813 1.48128906 -5.31515625 1.40007812 -4.3828125 1.31640625 C-1.98889139 1.13010715 -1.98889139 1.13010715 0 0 Z " fill="#3EB2DC" transform="translate(47,107)"/>
<path d="M0 0 C0.66 0 1.32 0 2 0 C2.5345256 1.24420647 3.05208611 2.49570936 3.5625 3.75 C3.85253906 4.44609375 4.14257812 5.1421875 4.44140625 5.859375 C5.07831803 8.30012784 4.80248831 9.6403655 4 12 C2 11.0625 2 11.0625 0 9 C-0.36475845 5.97465051 -0.22893297 3.03336186 0 0 Z " fill="#1F2633" transform="translate(79,78)"/>
<path d="M0 0 C0.763125 0.20625 1.52625 0.4125 2.3125 0.625 C2.3125 1.945 2.3125 3.265 2.3125 4.625 C0.5625 5.375 0.5625 5.375 -1.6875 5.625 C-3.9375 3.6875 -3.9375 3.6875 -5.6875 1.625 C-2.6875 -0.375 -2.6875 -0.375 0 0 Z " fill="#1B7ACE" transform="translate(80.6875,70.375)"/>
<path d="M0 0 C1.98 0 3.96 0 6 0 C6.33 2.64 6.66 5.28 7 8 C5.8274869 7.04882866 4.66212985 6.08882991 3.5 5.125 C2.8503125 4.59132813 2.200625 4.05765625 1.53125 3.5078125 C1.0259375 3.01023438 0.520625 2.51265625 0 2 C0 1.34 0 0.68 0 0 Z " fill="#232B38" transform="translate(104,47)"/>
<path d="M0 0 C1 2 1 2 0.3125 5.0625 C-1 8 -1 8 -3.125 8.875 C-3.74375 8.91625 -4.3625 8.9575 -5 9 C-6.33333333 6.33333333 -7.66666667 3.66666667 -9 1 C-8.401875 1.33 -7.80375 1.66 -7.1875 2 C-4.94613529 3.20787988 -4.94613529 3.20787988 -2 3 C-1.34 2.01 -0.68 1.02 0 0 Z " fill="#2568A5" transform="translate(87,40)"/>
<path d="M0 0 C0.66 1.65 1.32 3.3 2 5 C0.68 5 -0.64 5 -2 5 C-2.33 5.66 -2.66 6.32 -3 7 C-3.33 5.68 -3.66 4.36 -4 3 C-5.65 3.33 -7.3 3.66 -9 4 C-8 2 -8 2 -5.625 0.875 C-3 0 -3 0 0 0 Z " fill="#355881" transform="translate(55,16)"/>
<path d="M0 0 C2.39073445 3.82517513 2.55966552 7.59665524 3 12 C3.66 12 4.32 12 5 12 C5 13.32 5 14.64 5 16 C4.01 16 3.02 16 2 16 C1.67 12.7 1.34 9.4 1 6 C0.34 6 -0.32 6 -1 6 C-0.67 4.02 -0.34 2.04 0 0 Z " fill="#54628B" transform="translate(73,43)"/>
<path d="M0 0 C1.33333333 2.66666667 2.66666667 5.33333333 4 8 C4.66 8 5.32 8 6 8 C6 8.99 6 9.98 6 11 C4.46875 12.38671875 4.46875 12.38671875 2.5 13.6875 C1.52546875 14.34298828 1.52546875 14.34298828 0.53125 15.01171875 C0.0259375 15.33785156 -0.479375 15.66398437 -1 16 C-0.690625 15.443125 -0.38125 14.88625 -0.0625 14.3125 C1.0791156 11.82780722 1.71368297 9.72001179 2 7 C1.34 6.34 0.68 5.68 0 5 C-0.125 2.375 -0.125 2.375 0 0 Z " fill="#3E5474" transform="translate(105,28)"/>
<path d="M0 0 C0.33 0.66 0.66 1.32 1 2 C3.97 2 6.94 2 10 2 C10 2.33 10 2.66 10 3 C7.03 3 4.06 3 1 3 C1 3.66 1 4.32 1 5 C-0.32 5 -1.64 5 -3 5 C-3.33 3.68 -3.66 2.36 -4 1 C-2.68 0.67 -1.36 0.34 0 0 Z " fill="#626286" transform="translate(88,61)"/>
<path d="M0 0 C1.65 1.32 3.3 2.64 5 4 C1.49223216 5.60355101 -1.14354879 6.22036864 -5 6 C-3.35 4.02 -1.7 2.04 0 0 Z " fill="#1C4667" transform="translate(37,28)"/>
<path d="M0 0 C0.33 0 0.66 0 1 0 C1 1.65 1 3.3 1 5 C2.32 4.34 3.64 3.68 5 3 C4.34 4.98 3.68 6.96 3 9 C2.01 9 1.02 9 0 9 C-0.66 7.68 -1.32 6.36 -2 5 C-1.34 5 -0.68 5 0 5 C0 3.35 0 1.7 0 0 Z " fill="#5C6287" transform="translate(71,28)"/>
<path d="M0 0 C4.875 2.75 4.875 2.75 6 5 C4.02 5.66 2.04 6.32 0 7 C0 4.69 0 2.38 0 0 Z " fill="#222833" transform="translate(92,26)"/>
<path d="M0 0 C-0.66 1.65 -1.32 3.3 -2 5 C-3.9375 4.6875 -3.9375 4.6875 -6 4 C-6.33 3.01 -6.66 2.02 -7 1 C-4.53721199 -0.231394 -2.7204945 -0.07159196 0 0 Z " fill="#202733" transform="translate(65,19)"/>
<path d="M0 0 C3.63 0 7.26 0 11 0 C11 0.66 11 1.32 11 2 C7.37 2.33 3.74 2.66 0 3 C0 2.01 0 1.02 0 0 Z " fill="#252D3B" transform="translate(56,16)"/>
<path d="M0 0 C4.75 0.75 4.75 0.75 7 3 C7.125 5.625 7.125 5.625 7 8 C4.35247996 5.42215154 2.05567935 3.08351902 0 0 Z " fill="#212833" transform="translate(76,88)"/>
<path d="M0 0 C1.65 0.99 3.3 1.98 5 3 C4.67 4.65 4.34 6.3 4 8 C3.01 7.67 2.02 7.34 1 7 C0.67 4.69 0.34 2.38 0 0 Z " fill="#75537C" transform="translate(64,63)"/>
<path d="M0 0 C0.66 0.99 1.32 1.98 2 3 C2.845625 3.845625 3.69125 4.69125 4.5625 5.5625 C7 8 7 8 8 10 C4.9168649 8.80100302 1.93720508 7.52299523 -1 6 C-0.67 4.02 -0.34 2.04 0 0 Z " fill="#293749" transform="translate(93,19)"/>
<path d="M0 0 C0 3 0 3 -1.53125 4.82421875 C-2.1809375 5.43910156 -2.830625 6.05398437 -3.5 6.6875 C-4.1496875 7.31011719 -4.799375 7.93273437 -5.46875 8.57421875 C-5.9740625 9.04472656 -6.479375 9.51523438 -7 10 C-7.99 9.34 -8.98 8.68 -10 8 C-9.36191406 7.50628906 -8.72382812 7.01257813 -8.06640625 6.50390625 C-7.24011719 5.86324219 -6.41382812 5.22257812 -5.5625 4.5625 C-4.73878906 3.92441406 -3.91507812 3.28632812 -3.06640625 2.62890625 C-1.12498733 1.16417803 -1.12498733 1.16417803 0 0 Z " fill="#3C94B4" transform="translate(120,83)"/>
<path d="M0 0 C0.78375 0.66 1.5675 1.32 2.375 2 C4.71512812 4.20201441 4.71512812 4.20201441 7 4 C7 5.65 7 7.3 7 9 C6.01 9 5.02 9 4 9 C0 2.25 0 2.25 0 0 Z " fill="#485276" transform="translate(72,78)"/>
<path d="M0 0 C0.268125 0.639375 0.53625 1.27875 0.8125 1.9375 C1.88667752 4.33131686 1.88667752 4.33131686 5 5 C5 5.66 5 6.32 5 7 C4.01 7 3.02 7 2 7 C2 8.65 2 10.3 2 12 C-0.13586678 8.79619983 -0.23132175 7.98060033 -0.125 4.3125 C-0.10695312 3.50425781 -0.08890625 2.69601563 -0.0703125 1.86328125 C-0.04710937 1.24839844 -0.02390625 0.63351563 0 0 Z " fill="#2F3D4F" transform="translate(51,47)"/>
<path d="M0 0 C-0.99 0.66 -1.98 1.32 -3 2 C-3.25030977 4.58380177 -3.25030977 4.58380177 -3 7 C-5.5 5.6875 -5.5 5.6875 -8 4 C-8 3.01 -8 2.02 -8 1 C-2.25 -1.125 -2.25 -1.125 0 0 Z " fill="#445979" transform="translate(56,31)"/>
<path d="M0 0 C0.99 0.33 1.98 0.66 3 1 C3.33 4.3 3.66 7.6 4 11 C1 9 1 9 0.48828125 6.8359375 C0.43027344 6.02382813 0.37226562 5.21171875 0.3125 4.375 C0.24675781 3.55773438 0.18101563 2.74046875 0.11328125 1.8984375 C0.07589844 1.27195313 0.03851563 0.64546875 0 0 Z " fill="#252D3B" transform="translate(111,47)"/>
<path d="M0 0 C1.65 0.33 3.3 0.66 5 1 C5.33 2.32 5.66 3.64 6 5 C4.68 4.67 3.36 4.34 2 4 C2 3.34 2 2.68 2 2 C0.68 2.33 -0.64 2.66 -2 3 C-1.34 2.01 -0.68 1.02 0 0 Z " fill="#2A5177" transform="translate(64,40)"/>
<path d="M0 0 C0.33 0 0.66 0 1 0 C1 2.31 1 4.62 1 7 C-0.32 7.33 -1.64 7.66 -3 8 C-3.99 6.68 -4.98 5.36 -6 4 C-5.67 3.34 -5.34 2.68 -5 2 C-4.01 2.99 -3.02 3.98 -2 5 C-1.34 3.35 -0.68 1.7 0 0 Z " fill="#335277" transform="translate(59,36)"/>
<path d="M0 0 C3.42491198 -0.39141851 4.79010327 -0.13357065 7.75 1.75 C10.06501562 4.06501562 10.40642971 4.92891893 11 8 C10.45730469 7.59007812 9.91460937 7.18015625 9.35546875 6.7578125 C8.64003906 6.21898437 7.92460938 5.68015625 7.1875 5.125 C6.47980469 4.59132813 5.77210937 4.05765625 5.04296875 3.5078125 C3.39543703 2.29185219 1.70375789 1.13583859 0 0 Z " fill="#38ADD9" transform="translate(32,35)"/>
<path d="M0 0 C0.33 0.66 0.66 1.32 1 2 C0.34 2 -0.32 2 -1 2 C-1 2.99 -1 3.98 -1 5 C-0.01 4.67 0.98 4.34 2 4 C2 5.32 2 6.64 2 8 C-0.62187494 6.95125002 -1.79371361 6.35068687 -3.25 3.875 C-3.4975 3.25625 -3.745 2.6375 -4 2 C-2.68 1.34 -1.36 0.68 0 0 Z " fill="#242935" transform="translate(48,23)"/>
<path d="M0 0 C1.98 0.495 1.98 0.495 4 1 C3.67 2.32 3.34 3.64 3 5 C1.68 4.67 0.36 4.34 -1 4 C-0.67 2.68 -0.34 1.36 0 0 Z " fill="#2A6297" transform="translate(121,45)"/>
<path d="M0 0 C0.66 0 1.32 0 2 0 C2 0.99 2 1.98 2 3 C2.66 3.33 3.32 3.66 4 4 C3.01 4 2.02 4 1 4 C1 5.98 1 7.96 1 10 C0.67 10 0.34 10 0 10 C0 8.02 0 6.04 0 4 C-1.32 4.33 -2.64 4.66 -4 5 C-3.67 4.34 -3.34 3.68 -3 3 C-2.01 3 -1.02 3 0 3 C0 2.01 0 1.02 0 0 Z " fill="#265F93" transform="translate(60,25)"/>
<path d="M0 0 C0.99 0.33 1.98 0.66 3 1 C2 4 2 4 0 6 C-0.99 6 -1.98 6 -3 6 C-3 5.01 -3 4.02 -3 3 C-2.34 3 -1.68 3 -1 3 C-0.67 2.01 -0.34 1.02 0 0 Z " fill="#26405C" transform="translate(50,22)"/>
<path d="M0 0 C1.98 0.495 1.98 0.495 4 1 C3.67 2.32 3.34 3.64 3 5 C1.68 4.67 0.36 4.34 -1 4 C-0.67 2.68 -0.34 1.36 0 0 Z " fill="#7A4761" transform="translate(78,9)"/>
<path d="M0 0 C1.98 0.495 1.98 0.495 4 1 C3.67 2.32 3.34 3.64 3 5 C1.68 4.67 0.36 4.34 -1 4 C-0.67 2.68 -0.34 1.36 0 0 Z " fill="#2766A0" transform="translate(57,4)"/>
<path d="M0 0 C1.65 0 3.3 0 5 0 C5 1.32 5 2.64 5 4 C3.35 4 1.7 4 0 4 C0 2.68 0 1.36 0 0 Z " fill="#7B445E" transform="translate(122,64)"/>
<path d="M0 0 C1.98 1.65 3.96 3.3 6 5 C5.34 6.32 4.68 7.64 4 9 C3.34 9 2.68 9 2 9 C2.226875 8.401875 2.45375 7.80375 2.6875 7.1875 C2.790625 6.465625 2.89375 5.74375 3 5 C1.60411246 3.35405861 1.60411246 3.35405861 0 2 C0 1.34 0 0.68 0 0 Z " fill="#304B69" transform="translate(104,49)"/>
<path d="M0 0 C3.875 1.75 3.875 1.75 5 4 C4.34 4 3.68 4 3 4 C2.67 4.99 2.34 5.98 2 7 C1.01 6.67 0.02 6.34 -1 6 C-1 5.01 -1 4.02 -1 3 C-0.34 2.67 0.32 2.34 1 2 C0.67 1.34 0.34 0.68 0 0 Z " fill="#324459" transform="translate(64,29)"/>
<path d="M0 0 C1.32 0 2.64 0 4 0 C4 1.32 4 2.64 4 4 C2.35 4 0.7 4 -1 4 C-0.67 2.68 -0.34 1.36 0 0 Z " fill="#9B3463" transform="translate(85,91)"/>
<path d="M0 0 C-0.33 1.98 -0.66 3.96 -1 6 C-2.65 4.35 -4.3 2.7 -6 1 C-3 0 -3 0 0 0 Z " fill="#202733" transform="translate(111,62)"/>
<path d="M0 0 C0 0.66 0 1.32 0 2 C-0.61875 2.0825 -1.2375 2.165 -1.875 2.25 C-4.18437567 2.81258459 -4.18437567 2.81258459 -5.25 5.0625 C-5.4975 5.701875 -5.745 6.34125 -6 7 C-6 5.68 -6 4.36 -6 3 C-6.99 2.67 -7.98 2.34 -9 2 C-3.375 0 -3.375 0 0 0 Z " fill="#555C85" transform="translate(117,59)"/>
<path d="M0 0 C2.64 0.33 5.28 0.66 8 1 C6 3 6 3 3.375 3.125 C2.59125 3.08375 1.8075 3.0425 1 3 C0.67 2.01 0.34 1.02 0 0 Z " fill="#212734" transform="translate(77,21)"/>
</svg>
