<?xml version="1.0" encoding="UTF-8"?>
<svg version="1.1" xmlns="http://www.w3.org/2000/svg" width="480" height="131">
<path d="M0 0 C158.4 0 316.8 0 480 0 C480 43.23 480 86.46 480 131 C321.6 131 163.2 131 0 131 C0 87.77 0 44.54 0 0 Z " fill="#FEFDFE" transform="translate(0,0)"/>
<path d="M0 0 C0.99 0.33 1.98 0.66 3 1 C3 1.66 3 2.32 3 3 C3.99 3.33 4.98 3.66 6 4 C5.34 4.33 4.68 4.66 4 5 C8.95 6.32 13.9 7.64 19 9 C18.505 8.01 18.505 8.01 18 7 C20.97 6.505 20.97 6.505 24 6 C24.0825 6.61875 24.165 7.2375 24.25 7.875 C24.79423649 10.08577621 24.79423649 10.08577621 26.5625 11.0625 C28.90168153 12.00127137 28.90168153 12.00127137 30.97265625 12.57421875 C33.11520724 13.24692532 35.03570135 13.90727757 37 15 C38.4375 18 38.4375 18 39 21 C39.495 22.485 39.495 22.485 40 24 C40.66 24 41.32 24 42 24 C45.07708804 29.93438408 46.48736475 34.29873464 46 41 C45.67 41 45.34 41 45 41 C44.87625 40.195625 44.7525 39.39125 44.625 38.5625 C44.315625 37.2940625 44.315625 37.2940625 44 36 C43.34 35.67 42.68 35.34 42 35 C42.30798326 36.48011371 42.621518 37.95907325 42.9375 39.4375 C43.11152344 40.26121094 43.28554687 41.08492187 43.46484375 41.93359375 C43.80752994 43.97661204 43.80752994 43.97661204 45 45 C45.99 44.01 45.99 44.01 47 43 C48.02811533 47.90867092 48.01692366 52.35309452 47.6875 57.3125 C47.63432617 58.40401367 47.63432617 58.40401367 47.58007812 59.51757812 C47.46555353 61.35168091 47.24163521 63.17828066 47 65 C46.01 65.495 46.01 65.495 45 66 C45.33 60.39 45.66 54.78 46 49 C45.01 49 44.02 49 43 49 C43 52.63 43 56.26 43 60 C42.34 60 41.68 60 41 60 C40.814375 60.85658203 40.814375 60.85658203 40.625 61.73046875 C38.81557864 68.84375649 35.62033148 74.23776379 31.64453125 80.3125 C29.8260162 82.75920236 29.8260162 82.75920236 30 85 C31.65 85 33.3 85 35 85 C35.22171875 84.42121094 35.4434375 83.84242187 35.671875 83.24609375 C37.40230444 80.31963219 39.45864218 78.98823183 42.25 77.0625 C46.33437387 74.19109393 50.2254926 71.26443883 54 68 C45.69342268 86.65110374 20.48890988 100.88384363 2.36328125 108.53515625 C-13.58666012 114.55367098 -30.96822019 117.10188935 -47 110 C-53.73992151 106.1457634 -58.13557502 101.23778812 -61 94 C-63.38117177 84.19878975 -61.83369543 75.27642362 -58 66 C-57.01 65.505 -57.01 65.505 -56 65 C-56.144375 65.53367187 -56.28875 66.06734375 -56.4375 66.6171875 C-58.56168112 75.14341451 -59.68087499 84.11642107 -55 92 C-47.51706764 99.652999 -39.76191203 100.52771608 -29.5625 101.1875 C-28.44939453 101.26935547 -27.33628906 101.35121094 -26.18945312 101.43554688 C-23.46022202 101.63467532 -20.73070859 101.82249916 -18 102 C-18 101.34 -18 100.68 -18 100 C-18.96421875 100.04640625 -19.9284375 100.0928125 -20.921875 100.140625 C-22.18515625 100.17671875 -23.4484375 100.2128125 -24.75 100.25 C-26.00296875 100.29640625 -27.2559375 100.3428125 -28.546875 100.390625 C-32 100 -32 100 -34.41796875 98.26953125 C-36.1713667 95.75416284 -36.48568455 94.46402855 -36.5625 91.4375 C-36.6170702 88.06343462 -36.6170702 88.06343462 -38.45703125 85.359375 C-38.96621094 84.91078125 -39.47539063 84.4621875 -40 84 C-41.59098609 80.90641594 -42.05961163 78.35179804 -42.25 74.9375 C-42.3853677 72.86629893 -42.3853677 72.86629893 -43 71 C-45.94236782 68.78831775 -45.94236782 68.78831775 -49 67 C-49.8671875 64.67578125 -49.8671875 64.67578125 -50 62 C-48.8203125 59.6484375 -48.8203125 59.6484375 -47.125 57.375 C-44.25472514 53.46341612 -42.89855317 50.68048575 -42.82421875 45.796875 C-42.80037109 44.98089844 -42.77652344 44.16492187 -42.75195312 43.32421875 C-42.70938175 41.62394367 -42.6779175 39.92334994 -42.65820312 38.22265625 C-42.46052745 32.36593987 -41.3942705 28.81438743 -38 24 C-37.34 23.67 -36.68 23.34 -36 23 C-36.433125 24.0209375 -36.433125 24.0209375 -36.875 25.0625 C-39.27076732 31.31811467 -40.17899218 36.70279316 -40.25 43.3125 C-40.4533625 50.04387179 -41.57626152 54.50726531 -45.72265625 60.01953125 C-47.3613424 62.1674692 -47.3613424 62.1674692 -47 66 C-44.11211359 68.23084477 -44.11211359 68.23084477 -41 70 C-40 71 -40 71 -39.625 74.6875 C-39.15951356 78.86186228 -38.06656292 82.93343708 -35 86 C-34.67902249 88.31817089 -34.48779044 90.63779357 -34.28125 92.96875 C-34.20934163 94.99180593 -34.20934163 94.99180593 -33 96 C-26.85208876 96.64040742 -22.32250783 95.08565651 -17 92 C-13.89620841 89.35847524 -11.30416333 86.91248998 -10 83 C-9.83275263 79.83304044 -9.83275263 79.83304044 -10 77 C-13.23313559 75.1319661 -16.45185428 73.28179322 -19.7734375 71.57421875 C-29.66847338 66.44100309 -29.66847338 66.44100309 -32 62 C-32.58055658 56.72975262 -31.07191414 53.73427678 -28.5 49.1875 C-26.01829651 44.50326156 -23.89713693 40.38005258 -24.37109375 34.96484375 C-26.04014427 29.75035673 -30.52994168 25.92273044 -35 23 C-34.82374165 20.62051228 -34.30280227 19.29774151 -32.59765625 17.62109375 C-31.09350908 16.37884514 -29.54870149 15.18623944 -28 14 C-28.66 13.67 -29.32 13.34 -30 13 C-30 12.01 -30 11.02 -30 10 C-29.32453125 9.73445313 -28.6490625 9.46890625 -27.953125 9.1953125 C-26.61507812 8.66550781 -26.61507812 8.66550781 -25.25 8.125 C-24.36828125 7.77695312 -23.4865625 7.42890625 -22.578125 7.0703125 C-20.0384159 6.06284557 -20.0384159 6.06284557 -17.859375 4.8671875 C-16 4 -16 4 -13 4 C-12.505 4.99 -12.505 4.99 -12 6 C-8.7 5.67 -5.4 5.34 -2 5 C-4.97 4.67 -7.94 4.34 -11 4 C-11 3.67 -11 3.34 -11 3 C-10.28972656 2.86722656 -9.57945313 2.73445312 -8.84765625 2.59765625 C-7.92855469 2.42105469 -7.00945313 2.24445312 -6.0625 2.0625 C-5.14597656 1.88847656 -4.22945312 1.71445313 -3.28515625 1.53515625 C-1.04710156 1.22285012 -1.04710156 1.22285012 0 0 Z " fill="#476B86" transform="translate(71,12)"/>
<path d="M0 0 C4.9927158 1.43857913 7.03454233 3.67864922 9.6875 8.0625 C12.84301364 14.75524263 13.28797094 22.17875445 13.77832031 29.46606445 C14.2379288 34.95910783 15.48883054 39.50370009 18.6875 44.0625 C21.3246727 46.38609187 21.3246727 46.38609187 24.375 48.0625 C33.15455435 53.54838475 40.93925745 59.62187658 45.6875 69.0625 C45.6875 70.0525 45.6875 71.0425 45.6875 72.0625 C47.66790156 71.2530146 49.64679077 70.43982831 51.625 69.625 C52.72714844 69.17253906 53.82929687 68.72007813 54.96484375 68.25390625 C57.55318916 67.31825392 57.55318916 67.31825392 58.6875 66.0625 C60.35367115 66.02186168 62.02138095 66.019779 63.6875 66.0625 C63.90921875 65.48371094 64.1309375 64.90492187 64.359375 64.30859375 C66.08980444 61.38213219 68.14614218 60.05073183 70.9375 58.125 C75.02187387 55.25359393 78.9129926 52.32693883 82.6875 49.0625 C74.38092268 67.71360374 49.17640988 81.94634363 31.05078125 89.59765625 C15.10083988 95.61617098 -2.28072019 98.16438935 -18.3125 91.0625 C-25.05242151 87.2082634 -29.44807502 82.30028812 -32.3125 75.0625 C-34.69367177 65.26128975 -33.14619543 56.33892362 -29.3125 47.0625 C-28.3225 46.5675 -28.3225 46.5675 -27.3125 46.0625 C-27.456875 46.59617188 -27.60125 47.12984375 -27.75 47.6796875 C-29.87418112 56.20591451 -30.99337499 65.17892107 -26.3125 73.0625 C-18.82956764 80.715499 -11.07441203 81.59021608 -0.875 82.25 C0.23810547 82.33185547 1.35121094 82.41371094 2.49804688 82.49804688 C5.22727798 82.69717532 7.95679141 82.88499916 10.6875 83.0625 C10.6875 82.4025 10.6875 81.7425 10.6875 81.0625 C9.72328125 81.10890625 8.7590625 81.1553125 7.765625 81.203125 C6.50234375 81.23921875 5.2390625 81.2753125 3.9375 81.3125 C2.68453125 81.35890625 1.4315625 81.4053125 0.140625 81.453125 C-3.3125 81.0625 -3.3125 81.0625 -5.73046875 79.33203125 C-7.4838667 76.81666284 -7.79818455 75.52652855 -7.875 72.5 C-7.9295702 69.12593462 -7.9295702 69.12593462 -9.76953125 66.421875 C-10.27871094 65.97328125 -10.78789062 65.5246875 -11.3125 65.0625 C-12.90348609 61.96891594 -13.37211163 59.41429804 -13.5625 56 C-13.6978677 53.92879893 -13.6978677 53.92879893 -14.3125 52.0625 C-17.25486782 49.85081775 -17.25486782 49.85081775 -20.3125 48.0625 C-21.1796875 45.73828125 -21.1796875 45.73828125 -21.3125 43.0625 C-20.1328125 40.7109375 -20.1328125 40.7109375 -18.4375 38.4375 C-15.56722514 34.52591612 -14.21105317 31.74298575 -14.13671875 26.859375 C-14.11287109 26.04339844 -14.08902344 25.22742188 -14.06445312 24.38671875 C-14.02188175 22.68644367 -13.9904175 20.98584994 -13.97070312 19.28515625 C-13.77302745 13.42843987 -12.7067705 9.87688743 -9.3125 5.0625 C-8.6525 4.7325 -7.9925 4.4025 -7.3125 4.0625 C-7.745625 5.0834375 -7.745625 5.0834375 -8.1875 6.125 C-10.58326732 12.38061467 -11.49149218 17.76529316 -11.5625 24.375 C-11.7658625 31.10637179 -12.88876152 35.56976531 -17.03515625 41.08203125 C-18.6738424 43.2299692 -18.6738424 43.2299692 -18.3125 47.0625 C-15.42461359 49.29334477 -15.42461359 49.29334477 -12.3125 51.0625 C-11.3125 52.0625 -11.3125 52.0625 -10.9375 55.75 C-10.47201356 59.92436228 -9.37906292 63.99593708 -6.3125 67.0625 C-5.99152249 69.38067089 -5.80029044 71.70029357 -5.59375 74.03125 C-5.52184163 76.05430593 -5.52184163 76.05430593 -4.3125 77.0625 C1.83541124 77.70290742 6.36499217 76.14815651 11.6875 73.0625 C14.79129159 70.42097524 17.38333667 67.97498998 18.6875 64.0625 C18.85474737 60.89554044 18.85474737 60.89554044 18.6875 58.0625 C15.45436441 56.1944661 12.23564572 54.34429322 8.9140625 52.63671875 C-0.98097338 47.50350309 -0.98097338 47.50350309 -3.3125 43.0625 C-3.89305658 37.79225262 -2.38441414 34.79677678 0.1875 30.25 C2.66920349 25.56576156 4.79036307 21.44255258 4.31640625 16.02734375 C2.58846625 10.62887282 -1.89845077 7.28815136 -6.3125 4.0625 C-6.3125 3.4025 -6.3125 2.7425 -6.3125 2.0625 C-3.3125 0.0625 -3.3125 0.0625 0 0 Z " fill="#064DAD" transform="translate(42.3125,30.9375)"/>
<path d="M0 0 C8.2079646 4.49115044 8.2079646 4.49115044 10 7 C10.07421875 9.91796875 10.07421875 9.91796875 9.6875 13.1875 C9.56761719 14.27417969 9.44773437 15.36085938 9.32421875 16.48046875 C9.21722656 17.31191406 9.11023438 18.14335938 9 19 C8.34 19 7.68 19 7 19 C7 19.33 7 19.66 7 20 C3.04 20 -0.92 20 -5 20 C-5.33 19.01 -5.66 18.02 -6 17 C-7.65 17 -9.3 17 -11 17 C-10.67 19.31 -10.34 21.62 -10 24 C-9.401875 23.505 -8.80375 23.01 -8.1875 22.5 C-3.51663366 20.30194525 0.9195716 20.75976959 6 21 C6.33 21.66 6.66 22.32 7 23 C7.70125 23.0825 8.4025 23.165 9.125 23.25 C13.38912683 24.36238091 16.37569201 26.43949224 19 30 C19.69975948 33.1118092 19.67048591 35.8849106 19 39 C18.34 39.99 17.68 40.98 17 42 C17 42.33 17 42.66 17 43 C16.67449498 44.66821323 16.34153937 46.33499557 16 48 C14.35369672 47.85957123 12.70795821 47.71250671 11.0625 47.5625 C10.14597656 47.48128906 9.22945312 47.40007812 8.28515625 47.31640625 C6 47 6 47 5 46 C5 50.46157735 6.33890574 54.56399176 7.44140625 58.87109375 C7.96214585 61.78796384 8.07054071 63.2883909 7 66 C6 67 6 67 2.5625 67.125 C-1 67 -1 67 -3 66 C-3.33 65.01 -3.66 64.02 -4 63 C-4.66 63 -5.32 63 -6 63 C-6.33 62.34 -6.66 61.68 -7 61 C-8.32 61 -9.64 61 -11 61 C-11.66 60.67 -12.32 60.34 -13 60 C-12.67 56.7 -12.34 53.4 -12 50 C-11.34 50.66 -10.68 51.32 -10 52 C-9.67 49.03 -9.34 46.06 -9 43 C-9.33 43 -9.66 43 -10 43 C-10.66 43 -11.32 43 -12 43 C-12.336611 41.22978678 -12.66917293 39.45880326 -13 37.6875 C-13.185625 36.70136719 -13.37125 35.71523438 -13.5625 34.69921875 C-14 32 -14 32 -14 29 C-14.66 28.34 -15.32 27.68 -16 27 C-17.59280546 22.08393377 -18.26479098 17.16342413 -18 12 C-17.01 12.33 -16.02 12.66 -15 13 C-15.66 12.01 -16.32 11.02 -17 10 C-14.56288386 9.80515062 -12.12562602 9.61884822 -9.6875 9.4375 C-8.99720703 9.38142578 -8.30691406 9.32535156 -7.59570312 9.26757812 C-4.37487726 9.03418495 -2.09672655 8.96775782 1 10 C0.67 9.01 0.34 8.02 0 7 C-0.03954234 4.66700175 -0.04401732 2.33291811 0 0 Z " fill="#A3A3AC" transform="translate(94,26)"/>
<path d="M0 0 C2.38869167 1.94124222 4.71068735 3.94245661 7 6 C7.52078125 6.46792969 8.0415625 6.93585937 8.578125 7.41796875 C11.13893815 10.04500982 12.41150034 12.40924875 12.75 16 C12.47234582 21.84065408 9.34402047 26.69539239 6.53125 31.66796875 C4.89107307 35.23702723 4.37280995 37.13755461 5 41 C7.86985349 46.02599997 12.06646923 47.86636737 17.125 50.1875 C24.78881469 53.78881469 24.78881469 53.78881469 27 56 C27.83890063 60.29936572 26.72793643 62.98394761 24.5625 66.625 C21.18255897 71.41661092 17.43942137 73.17235442 12 75 C11.01 75.495 11.01 75.495 10 76 C6.5 76.1875 6.5 76.1875 3 76 C0.2173829 73.2173829 0.59069336 70.89667775 0.34375 67.09375 C0.17368193 64.78487741 0.17368193 64.78487741 -2 63 C-3.54888889 59.90222222 -4.0462849 57.40200009 -4.1875 54 C-4.44136685 51.3191661 -4.69339255 50.30808865 -6.6171875 48.375 C-8.76059558 46.81708065 -8.76059558 46.81708065 -12 45 C-11.45424598 41.40298485 -10.59257987 39.19421122 -8.5 36.25 C-5.45282529 31.06369118 -5.37241841 26.07496183 -5.27734375 20.20410156 C-5.14364093 12.95406641 -3.24517947 6.49035893 0 0 Z " fill="#6390CC" transform="translate(35,33)"/>
<path d="M0 0 C2.86724686 0.57344937 3.8614515 0.8614515 6 3 C7.74017325 9.51161605 6.61911105 15.59046123 5 22 C4.34 22 3.68 22 3 22 C3 23.65 3 25.3 3 27 C3.99 27.33 4.98 27.66 6 28 C6.33 28.66 6.66 29.32 7 30 C7.66 28.68 8.32 27.36 9 26 C15.0546875 25.8046875 15.0546875 25.8046875 17 26 C17.66 26.66 18.32 27.32 19 28 C19.66 28.33 20.32 28.66 21 29 C21.625 32.0625 21.625 32.0625 22 35 C18.04 35 14.08 35 10 35 C13.96 35.33 17.92 35.66 22 36 C23.42500059 39.99000166 24.40075776 43.80530429 25 48 C24.34 48 23.68 48 23 48 C23 49.98 23 51.96 23 54 C23.66 54 24.32 54 25 54 C24.67 56.64 24.34 59.28 24 62 C23.34 62 22.68 62 22 62 C22.65504271 65.08091355 22.65504271 65.08091355 24.875 66.0625 C25.926875 66.5265625 25.926875 66.5265625 27 67 C30 69 30 69 30.6875 71.125 C30.790625 71.74375 30.89375 72.3625 31 73 C31.71027344 72.98839844 32.42054687 72.97679688 33.15234375 72.96484375 C34.07144531 72.95582031 34.99054688 72.94679688 35.9375 72.9375 C36.85402344 72.92589844 37.77054688 72.91429688 38.71484375 72.90234375 C41 73 41 73 42 74 C42.04063832 75.66617115 42.042721 77.33388095 42 79 C35.375 82 35.375 82 32 82 C31.2265625 80.2675 31.2265625 80.2675 30.4375 78.5 C25.92155851 69.63941135 19.24471044 64.46562827 11.0859375 59.078125 C5.54957428 55.3498399 1.86933781 52.62989616 0 46 C-0.51482452 43.07193552 -0.77050181 40.14994172 -1 37.1875 C-1.92764742 27.55250524 -2.78920408 19.03492284 -10 12 C-12.14980497 10.62745412 -12.14980497 10.62745412 -14 10 C-13.34 8.68 -12.68 7.36 -12 6 C-8.63820226 7.44077046 -6.40843732 9.24750021 -4 12 C-4 12.66 -4 13.32 -4 14 C-3.34 14 -2.68 14 -2 14 C-1.93941406 13.24074219 -1.87882812 12.48148438 -1.81640625 11.69921875 C-1.73261719 10.70535156 -1.64882813 9.71148437 -1.5625 8.6875 C-1.48128906 7.70136719 -1.40007813 6.71523438 -1.31640625 5.69921875 C-1 3 -1 3 0 0 Z " fill="#EFEEF1" transform="translate(56,21)"/>
<path d="M0 0 C3.01125 -0.061875 6.0225 -0.12375 9.125 -0.1875 C10.06230957 -0.21481201 10.99961914 -0.24212402 11.96533203 -0.27026367 C18.62367793 -0.33620895 22.68578964 0.99435102 27.8125 5.4375 C31.22504318 9.43505058 31.41599205 13.54781373 31.33984375 18.68359375 C30.76619333 22.59364777 28.99774952 25.45685426 26 28 C20.26724983 31.15155016 15.5135905 31.3773203 9.0625 31.1875 C4.5765625 31.0946875 4.5765625 31.0946875 0 31 C0 20.77 0 10.54 0 0 Z " fill="#323335" transform="translate(411,50)"/>
<path d="M0 0 C5.67458259 1.89152753 9.32628019 5.65256038 12 11 C12.8731998 17.01260432 12.02611579 21.39196098 8.4609375 26.3359375 C5.35565405 29.87297159 2.61458492 30.7765718 -1.9921875 31.4140625 C-7.9287248 31.78423919 -12.04142828 31.70807938 -16.6875 27.75 C-20.32546828 24.10424163 -22.28364704 20.83211873 -22.375 15.625 C-22.26224755 11.04725042 -21.02804029 8.51907385 -18 5 C-12.02699628 -0.26193185 -7.81748614 -0.59793803 0 0 Z " fill="#343537" transform="translate(267,50)"/>
<path d="M0 0 C2.84625 -0.061875 5.6925 -0.12375 8.625 -0.1875 C9.51010254 -0.21481201 10.39520508 -0.24212402 11.30712891 -0.27026367 C17.17114608 -0.3316359 21.37532707 0.63779437 25.875 4.6875 C27.5527289 8.13616496 27.76858288 11.30119491 27 15 C25.56387449 17.6478564 23.94500037 19.66599956 22 22 C22.3609375 22.48210937 22.721875 22.96421875 23.09375 23.4609375 C23.5578125 24.09257813 24.021875 24.72421875 24.5 25.375 C24.9640625 26.00148438 25.428125 26.62796875 25.90625 27.2734375 C27 29 27 29 27 31 C23.8125 31.4375 23.8125 31.4375 20 31 C18.52847073 29.31701931 17.4848262 27.53732875 16.33203125 25.625 C14.92524509 23.57756648 14.92524509 23.57756648 11.1875 23.0625 C10.135625 23.041875 9.08375 23.02125 8 23 C8 25.64 8 28.28 8 31 C5.36 31 2.72 31 0 31 C0 20.77 0 10.54 0 0 Z " fill="#37383A" transform="translate(364,50)"/>
<path d="M0 0 C4.9927158 1.43857913 7.03454233 3.67864922 9.6875 8.0625 C12.84301364 14.75524263 13.28797094 22.17875445 13.77832031 29.46606445 C14.2379288 34.95910783 15.48883054 39.50370009 18.6875 44.0625 C21.3246727 46.38609187 21.3246727 46.38609187 24.375 48.0625 C32.46104615 53.10148729 39.88080065 58.68953984 44.6875 67.0625 C45 70.5 45 70.5 44.6875 73.0625 C43.39836513 73.73404933 42.10609796 74.39958859 40.8125 75.0625 C40.09320313 75.43375 39.37390625 75.805 38.6328125 76.1875 C36.6875 77.0625 36.6875 77.0625 34.6875 77.0625 C34.64882812 76.2271875 34.64882812 76.2271875 34.609375 75.375 C34.11919016 68.77978572 32.85404833 63.16323093 27.99609375 58.40625 C23.65089396 54.96520289 18.91440258 52.53507245 13.88671875 50.23828125 C9.66679002 47.98215594 8.2116098 45.55155124 6.6875 41.0625 C6.43212891 38.3269043 6.43212891 38.3269043 6.4140625 35.38671875 C6.3934375 34.31099609 6.3728125 33.23527344 6.3515625 32.12695312 C6.32565726 29.88744543 6.30734669 27.64783616 6.296875 25.40820312 C6.1333388 17.79922707 5.42167893 11.67998584 -0.3125 6.125 C-2.31833531 5.05939999 -4.08103238 4.46097636 -6.3125 4.0625 C-6.3125 3.4025 -6.3125 2.7425 -6.3125 2.0625 C-3.3125 0.0625 -3.3125 0.0625 0 0 Z " fill="#0E4873" transform="translate(42.3125,30.9375)"/>
<path d="M0 0 C0.56589844 0.15210937 1.13179687 0.30421875 1.71484375 0.4609375 C3.9804766 1.03717627 3.9804766 1.03717627 6.25390625 1.2890625 C8.6747113 1.64132855 10.74023885 2.05235823 13 3 C15 6.4375 15 6.4375 16 10 C16.33 10.99 16.66 11.98 17 13 C17.66 13 18.32 13 19 13 C22.07708804 18.93438408 23.48736475 23.29873464 23 30 C22.67 30 22.34 30 22 30 C21.87625 29.195625 21.7525 28.39125 21.625 27.5625 C21.41875 26.716875 21.2125 25.87125 21 25 C20.34 24.67 19.68 24.34 19 24 C19.30798326 25.48011371 19.621518 26.95907325 19.9375 28.4375 C20.11152344 29.26121094 20.28554687 30.08492187 20.46484375 30.93359375 C20.80752994 32.97661204 20.80752994 32.97661204 22 34 C22.66 33.34 23.32 32.68 24 32 C25.02811533 36.90867092 25.01692366 41.35309452 24.6875 46.3125 C24.65205078 47.04017578 24.61660156 47.76785156 24.58007812 48.51757812 C24.46555353 50.35168091 24.24163521 52.17828066 24 54 C23.01 54.495 23.01 54.495 22 55 C22.33 49.39 22.66 43.78 23 38 C22.01 38 21.02 38 20 38 C20 41.63 20 45.26 20 49 C19.34 49 18.68 49 18 49 C17.87625 49.57105469 17.7525 50.14210937 17.625 50.73046875 C15.85415519 57.69210241 12.65019067 63.17645008 8.7421875 69.1171875 C7.2732948 71.54777677 6.44062131 73.2361027 6 76 C5.34 76 4.68 76 4 76 C3.67 74.68 3.34 73.36 3 72 C-0.3 72 -3.6 72 -7 72 C-7.12375 70.824375 -7.12375 70.824375 -7.25 69.625 C-7.71525923 66.85955198 -7.71525923 66.85955198 -10 65.8125 C-10.66 65.544375 -11.32 65.27625 -12 65 C-12.33 64.34 -12.66 63.68 -13 63 C-11.35 63.66 -9.7 64.32 -8 65 C-7.67 63.68 -7.34 62.36 -7 61 C-6.67 62.65 -6.34 64.3 -6 66 C-4.515 65.505 -4.515 65.505 -3 65 C-3 66.32 -3 67.64 -3 69 C-0.03 69 2.94 69 6 69 C7.0826674 64.66933041 6.70725583 62.96270145 5.5625 58.75 C5.27503906 57.67234375 4.98757812 56.5946875 4.69140625 55.484375 C4.46324219 54.66453125 4.23507813 53.8446875 4 53 C3.67 53 3.34 53 3 53 C3 51.35 3 49.7 3 48 C4.98 47.505 4.98 47.505 7 47 C7 47.66 7 48.32 7 49 C9.97 49.66 12.94 50.32 16 51 C16 50.236875 16 49.47375 16 48.6875 C16 46.79166667 16 44.89583333 16 43 C16.495 43.495 16.495 43.495 17 44 C18.76593989 40.46812022 18.78998222 36.83430393 18 33 C16.06808729 30.31709023 13.90345325 28.56570516 11 27 C8.20152247 26.49246656 8.20152247 26.49246656 6 27 C6 26.01 6 25.02 6 24 C-0.32278971 24.32626495 -5.55464391 24.61504892 -11 28 C-10.67 26.68 -10.34 25.36 -10 24 C-11.32 23.67 -12.64 23.34 -14 23 C-13.01 22.67 -12.02 22.34 -11 22 C-11 21.34 -11 20.68 -11 20 C-9.02 19.67 -7.04 19.34 -5 19 C-5 20.32 -5 21.64 -5 23 C-3.18674449 22.88648483 -1.37436643 22.75887039 0.4375 22.625 C1.44683594 22.55539063 2.45617187 22.48578125 3.49609375 22.4140625 C4.32238281 22.27742188 5.14867188 22.14078125 6 22 C6.33 21.34 6.66 20.68 7 20 C7.33 20.33 7.66 20.66 8 21 C8.19532961 19.2300132 8.38098882 17.45895721 8.5625 15.6875 C8.66691406 14.70136719 8.77132812 13.71523438 8.87890625 12.69921875 C9.16602527 9.90069653 9.16602527 9.90069653 8 7 C6.13946652 5.36980308 6.13946652 5.36980308 3.9375 3.875 C2.61020612 2.93726337 1.29335877 1.98401328 0 1 C0 0.67 0 0.34 0 0 Z " fill="#63718C" transform="translate(94,23)"/>
<path d="M0 0 C5.82318271 5.67387033 5.82318271 5.67387033 6.5 10.75 C6.50770168 15.51734065 4.67422854 18.97645194 2.4375 23.0625 C-0.59632585 28.499145 -0.59632585 28.499145 -1.4375 34.5625 C0.59961807 39.43386929 3.36496566 40.77306982 8 43 C9.77084554 43.8749753 11.5416788 44.74997545 13.3125 45.625 C14.54419922 46.20121094 14.54419922 46.20121094 15.80078125 46.7890625 C17.99930505 47.99961735 19.45731654 49.02436989 21 51 C21.12527854 57.38920548 18.16789575 61.46727518 14 66 C11.01787087 67.49106457 8.28390342 67.11941467 5 67 C3.09576534 65.09576534 3.5740251 61.71526887 3.37890625 59.12890625 C3.17223364 56.79072597 3.17223364 56.79072597 1 55 C-0.54888889 51.90222222 -1.0462849 49.40200009 -1.1875 46 C-1.44136685 43.3191661 -1.69339255 42.30808865 -3.6171875 40.375 C-5.76059558 38.81708065 -5.76059558 38.81708065 -9 37 C-8.45424598 33.40298485 -7.59257987 31.19421122 -5.5 28.25 C-2.43638391 23.04448613 -2.37169336 18.01044054 -2.27734375 12.11621094 C-2.19620578 7.69621983 -1.62707006 4.11629278 0 0 Z " fill="#8FAFD9" transform="translate(32,41)"/>
<path d="M0 0 C6 0 6 0 8.125 1.6875 C8.74375 2.450625 9.3625 3.21375 10 4 C11.00546875 5.22009766 11.00546875 5.22009766 12.03125 6.46484375 C14.73489807 9.94632708 17.40706722 13.43471743 20 17 C20.33 11.39 20.66 5.78 21 0 C23.64 0 26.28 0 29 0 C29 10.23 29 20.46 29 31 C22 31 22 31 20.24316406 29.87011719 C19.83807617 29.35094727 19.43298828 28.83177734 19.015625 28.296875 C18.55542969 27.72839844 18.09523438 27.15992187 17.62109375 26.57421875 C17.16863281 25.97222656 16.71617187 25.37023437 16.25 24.75 C15.78207031 24.16347656 15.31414062 23.57695313 14.83203125 22.97265625 C12.49472988 20.02619985 10.25667449 17.00889933 8 14 C7.67 19.61 7.34 25.22 7 31 C4.69 31 2.38 31 0 31 C0 20.77 0 10.54 0 0 Z " fill="#393A3B" transform="translate(284,50)"/>
<path d="M0 0 C6 0 6 0 8.125 1.6875 C8.74375 2.450625 9.3625 3.21375 10 4 C11.00546875 5.22009766 11.00546875 5.22009766 12.03125 6.46484375 C14.73489807 9.94632708 17.40706722 13.43471743 20 17 C20.33 11.39 20.66 5.78 21 0 C23.64 0 26.28 0 29 0 C29 10.23 29 20.46 29 31 C22 31 22 31 20.24316406 29.87011719 C19.83807617 29.35094727 19.43298828 28.83177734 19.015625 28.296875 C18.55542969 27.72839844 18.09523437 27.15992187 17.62109375 26.57421875 C17.16863281 25.97222656 16.71617187 25.37023437 16.25 24.75 C15.78207031 24.16347656 15.31414062 23.57695313 14.83203125 22.97265625 C12.49472988 20.02619985 10.25667449 17.00889933 8 14 C7.67 19.61 7.34 25.22 7 31 C4.69 31 2.38 31 0 31 C0 20.77 0 10.54 0 0 Z " fill="#393A3B" transform="translate(136,50)"/>
<path d="M0 0 C2.825625 -0.0825 5.65125 -0.165 8.5625 -0.25 C9.43849854 -0.28641602 10.31449707 -0.32283203 11.21704102 -0.36035156 C16.99329279 -0.44123866 20.25651856 0.68326884 25 4 C26.97606631 6.49156187 27.02329509 8.179705 27.4375 11.375 C26.85406422 16.20918218 25.44960332 17.63062001 22 21 C18.71480525 22.09506492 16.26336585 22.09960608 12.8125 22.0625 C11.18248047 22.04896484 11.18248047 22.04896484 9.51953125 22.03515625 C8.68808594 22.02355469 7.85664063 22.01195313 7 22 C7 24.97 7 27.94 7 31 C4.69 31 2.38 31 0 31 C0 20.77 0 10.54 0 0 Z " fill="#323335" transform="translate(332,50)"/>
<path d="M0 0 C2.64 0 5.28 0 8 0 C9.85615587 4.09128955 11.70743902 8.18473722 13.55419922 12.28027344 C14.1833904 13.6737841 14.8139191 15.06669164 15.44580078 16.45898438 C16.35279374 18.4580709 17.25498538 20.45926313 18.15625 22.4609375 C18.44060913 23.08495453 18.72496826 23.70897156 19.01794434 24.35189819 C21 28.77225659 21 28.77225659 21 31 C18.36 31 15.72 31 13 31 C12.34 28.69 11.68 26.38 11 24 C8.72879236 24.00600055 6.45766714 24.05599796 4.1875 24.125 C2.29064453 24.15980469 2.29064453 24.15980469 0.35546875 24.1953125 C-3.27792473 24.65603127 -3.27792473 24.65603127 -4.94921875 28.0546875 C-5.29597656 29.02664062 -5.64273438 29.99859375 -6 31 C-8.31 31 -10.62 31 -13 31 C-10.78157548 23.87303484 -7.95177996 17.20419332 -4.8125 10.4375 C-4.34908203 9.42880859 -3.88566406 8.42011719 -3.40820312 7.38085938 C-2.27627662 4.9186275 -1.1401475 2.45843306 0 0 Z " fill="#333436" transform="translate(181,50)"/>
<path d="M0 0 C7.92 0 15.84 0 24 0 C24 1.98 24 3.96 24 6 C18.39 6 12.78 6 7 6 C7 8.31 7 10.62 7 13 C11.95 13 16.9 13 22 13 C22 14.65 22 16.3 22 18 C17.38 18 12.76 18 8 18 C8 20.31 8 22.62 8 25 C13.28 25 18.56 25 24 25 C24 26.98 24 28.96 24 31 C16.08 31 8.16 31 0 31 C0 20.77 0 10.54 0 0 Z " fill="#38393B" transform="translate(447,50)"/>
<path d="M0 0 C0.33 -0.33 0.66 -0.66 1 -1 C4.4375 -1.1875 4.4375 -1.1875 8 -1 C8.66 -0.34 9.32 0.32 10 1 C10.99 0.67 11.98 0.34 13 0 C15.6640625 0.7421875 15.6640625 0.7421875 18.625 1.875 C19.60726562 2.24367188 20.58953125 2.61234375 21.6015625 2.9921875 C24 4 24 4 25 5 C25.14115161 7.67058851 25.04247107 10.32432238 25 13 C21.95786733 14.52106634 18.71952428 14.37429338 15.375 14.5625 C14.31539062 14.62727539 14.31539062 14.62727539 13.234375 14.69335938 C11.48981463 14.79944751 9.74493303 14.90022889 8 15 C7.34 12.69 6.68 10.38 6 8 C5.97310784 9.47906892 5.95365379 10.95827483 5.9375 12.4375 C5.92589844 13.26121094 5.91429688 14.08492187 5.90234375 14.93359375 C5.76732652 16.99163938 5.76732652 16.99163938 7 18 C7.14115161 20.67058851 7.04247107 23.32432238 7 26 C5.741875 26.04125 4.48375 26.0825 3.1875 26.125 C2.47980469 26.14820312 1.77210937 26.17140625 1.04296875 26.1953125 C-1 26 -1 26 -4 24 C-4.66 24 -5.32 24 -6 24 C-5.47462276 18.9697924 -4.89405214 13.98114761 -4 9 C-3.01 9 -2.02 9 -1 9 C-1.79117904 7.00016466 -1.79117904 7.00016466 -3 5 C-3.99 4.67 -4.98 4.34 -6 4 C-7.1875 1.9375 -7.1875 1.9375 -8 0 C-4.71303767 -0.79953138 -3.28976808 -1.09658936 0 0 Z " fill="#E9EBED" transform="translate(68,20)"/>
<path d="M0 0 C8.2079646 4.49115044 8.2079646 4.49115044 10 7 C10.07421875 9.91796875 10.07421875 9.91796875 9.6875 13.1875 C9.56761719 14.27417969 9.44773437 15.36085938 9.32421875 16.48046875 C9.21722656 17.31191406 9.11023438 18.14335938 9 19 C8.34 19 7.68 19 7 19 C7 19.33 7 19.66 7 20 C3.04 20 -0.92 20 -5 20 C-5.33 19.01 -5.66 18.02 -6 17 C-7.65 17 -9.3 17 -11 17 C-10.67 19.31 -10.34 21.62 -10 24 C-9.401875 23.505 -8.80375 23.01 -8.1875 22.5 C-3.51663366 20.30194525 0.9195716 20.75976959 6 21 C6.33 21.66 6.66 22.32 7 23 C7.66 23 8.32 23 9 23 C9.66 26.63 10.32 30.26 11 34 C5.53125 29.5078125 5.53125 29.5078125 4 28 C4 27.34 4 26.68 4 26 C3.29875 26.2165625 2.5975 26.433125 1.875 26.65625 C-3.96771693 28.3709604 -8.91604388 29.34437487 -15 29 C-18.44419134 17.47835991 -18.44419134 17.47835991 -18 12 C-17.01 12.33 -16.02 12.66 -15 13 C-15.66 12.01 -16.32 11.02 -17 10 C-14.56288386 9.80515062 -12.12562602 9.61884822 -9.6875 9.4375 C-8.99720703 9.38142578 -8.30691406 9.32535156 -7.59570312 9.26757812 C-4.37487726 9.03418495 -2.09672655 8.96775782 1 10 C0.67 9.01 0.34 8.02 0 7 C-0.03954234 4.66700175 -0.04401732 2.33291811 0 0 Z " fill="#F0F1F2" transform="translate(94,26)"/>
<path d="M0 0 C8.91 0 17.82 0 27 0 C27 1.98 27 3.96 27 6 C23.7 6 20.4 6 17 6 C17 14.25 17 22.5 17 31 C14.69 31 12.38 31 10 31 C10 22.75 10 14.5 10 6 C6.7 6 3.4 6 0 6 C0 4.02 0 2.04 0 0 Z " fill="#313234" transform="translate(202,50)"/>
<path d="M0 0 C3.24812693 0.84648156 4.88992576 2.9648036 6.93359375 5.50390625 C7.26359375 5.83390625 7.59359375 6.16390625 7.93359375 6.50390625 C8.06192119 11.02286524 7.74184202 14.49971901 4.87109375 18.06640625 C1.05583759 19.9334465 -1.90240326 20.44416499 -6.06640625 19.50390625 C-9.20476938 17.47704673 -10.72510892 16.05093433 -11.54296875 12.34375 C-11.8090819 8.14896644 -11.39838638 6.01225082 -9.06640625 2.44140625 C-5.7392534 0.29262003 -3.88640546 -0.22774777 0 0 Z " fill="#F9F9F9" transform="translate(264.06640625,55.49609375)"/>
<path d="M0 0 C10.18215613 -0.49070632 10.18215613 -0.49070632 14.125 1.875 C17.00652201 5.14072495 17.00652201 5.14072495 16.984375 8.05859375 C16.86835938 9.23615234 16.86835938 9.23615234 16.75 10.4375 C16.68296875 11.21996094 16.6159375 12.00242187 16.546875 12.80859375 C15.8956961 15.41796062 15.10493912 16.36115454 13 18 C9.98509443 19.00496852 7.95818308 19.10335303 4.8125 19.0625 C3.224375 19.041875 1.63625 19.02125 0 19 C0 12.73 0 6.46 0 0 Z " fill="#F7F7F7" transform="translate(418,56)"/>
<path d="M0 0 C1.79158489 -0.02696365 3.58328473 -0.04637917 5.375 -0.0625 C6.37273437 -0.07410156 7.37046875 -0.08570312 8.3984375 -0.09765625 C11 0 11 0 13 1 C13.88671875 3.80078125 13.88671875 3.80078125 14.6875 7.3125 C14.95949219 8.46363281 15.23148438 9.61476563 15.51171875 10.80078125 C15.95707118 13.71873036 16.05988059 15.29569861 15 18 C14 19 14 19 10.5625 19.125 C7 19 7 19 5 18 C4.67 17.01 4.34 16.02 4 15 C3.34 15 2.68 15 2 15 C1.67 14.34 1.34 13.68 1 13 C-0.32 13 -1.64 13 -3 13 C-3.66 12.67 -4.32 12.34 -5 12 C-4.67 8.7 -4.34 5.4 -4 2 C-3.34 2.66 -2.68 3.32 -2 4 C-2 3.34 -2 2.68 -2 2 C-1.34 2 -0.68 2 0 2 C0 1.34 0 0.68 0 0 Z " fill="#E2E3E6" transform="translate(86,74)"/>
<path d="M0 0 C0.33 0 0.66 0 1 0 C1.33 3.3 1.66 6.6 2 10 C3.051875 10.144375 4.10375 10.28875 5.1875 10.4375 C8.15460549 10.87526966 11.06794366 11.37804866 14 12 C14 12.33 14 12.66 14 13 C9.545 13.495 9.545 13.495 5 14 C5.99 15.32 6.98 16.64 8 18 C6.68 17.34 5.36 16.68 4 16 C4.6770737 22.43220019 5.33523568 28.50285352 9 34 C8.855625 34.556875 8.71125 35.11375 8.5625 35.6875 C7.69689814 39.24608542 8.4589138 42.39275865 9 46 C10.65 45.01 12.3 44.02 14 43 C13.69052329 44.93798521 13.37731166 46.87537426 13.0625 48.8125 C12.88847656 49.89144531 12.71445313 50.97039062 12.53515625 52.08203125 C12 55 12 55 11 58 C10.67 57.34 10.34 56.68 10 56 C9.34 58.31 8.68 60.62 8 63 C7.34 63 6.68 63 6 63 C5.34 61.35 4.68 59.7 4 58 C4.66 58.33 5.32 58.66 6 59 C6.66 56.69 7.32 54.38 8 52 C7.34 52 6.68 52 6 52 C6 50.02 6 48.04 6 46 C6.66 46 7.32 46 8 46 C7.01 42.37 6.02 38.74 5 35 C0.71 34.67 -3.58 34.34 -8 34 C-7.34 33.34 -6.68 32.68 -6 32 C-3.3984375 32.0234375 -3.3984375 32.0234375 -0.375 32.375 C0.62789062 32.48585937 1.63078125 32.59671875 2.6640625 32.7109375 C3.82035156 32.85402344 3.82035156 32.85402344 5 33 C4.22520264 30.00847418 4.22520264 30.00847418 3 27 C2.01 26.67 1.02 26.34 0 26 C0 25.67 0 25.34 0 25 C-2.64 25 -5.28 25 -8 25 C-8.33 25.99 -8.66 26.98 -9 28 C-9.33 28.99 -9.66 29.98 -10 31 C-10.28875 30.195625 -10.5775 29.39125 -10.875 28.5625 C-11.73262568 25.8673532 -11.73262568 25.8673532 -14 25 C-14.40729228 22.67843403 -14.74438677 20.3431213 -15 18 C-14.34 18.33 -13.68 18.66 -13 19 C-11.3722167 12.85221129 -10.79809911 7.35987804 -11 1 C-9.68 1 -8.36 1 -7 1 C-6.34 2.98 -5.68 4.96 -5 7 C-6.32 6.67 -7.64 6.34 -9 6 C-9.33 10.62 -9.66 15.24 -10 20 C-9.01 20 -8.02 20 -7 20 C-7.33 20.33 -7.66 20.66 -8 21 C-4.7 21.66 -1.4 22.32 2 23 C1.855625 21.7625 1.71125 20.525 1.5625 19.25 C1.48128906 18.55390625 1.40007812 17.8578125 1.31640625 17.140625 C1.04859257 15.02113772 1.04859257 15.02113772 0.46875 13.09375 C-0.12563496 10.43883052 -0.09485258 7.96761713 -0.0625 5.25 C-0.05347656 4.26515625 -0.04445313 3.2803125 -0.03515625 2.265625 C-0.02355469 1.51796875 -0.01195313 0.7703125 0 0 Z " fill="#B1A8B3" transform="translate(73,23)"/>
<path d="M0 0 C0.99 0.495 0.99 0.495 2 1 C4.0374763 1.22858114 6.08040303 1.41024278 8.125 1.5625 C9.76855469 1.68818359 9.76855469 1.68818359 11.4453125 1.81640625 C12.28835937 1.87699219 13.13140625 1.93757813 14 2 C15.42500059 5.99000166 16.40075776 9.80530429 17 14 C16.34 14 15.68 14 15 14 C15 15.98 15 17.96 15 20 C15.66 20 16.32 20 17 20 C16.67 22.64 16.34 25.28 16 28 C11.34172707 25.8705038 9.57876096 23.08054861 7.2109375 18.7421875 C6.03466253 16.67904945 6.03466253 16.67904945 3 16 C1.91681831 10.6787385 0.847126 5.36513131 0 0 Z " fill="#D7DBDE" transform="translate(64,55)"/>
<path d="M0 0 C0.56589844 0.15210937 1.13179687 0.30421875 1.71484375 0.4609375 C3.9804766 1.03717627 3.9804766 1.03717627 6.25390625 1.2890625 C8.67114329 1.64080935 10.74089984 2.06120885 13 3 C15.31818747 6.83949799 16.33112761 10.58544225 17 15 C16.01 15.495 16.01 15.495 15 16 C16.30155006 20.07964281 16.30155006 20.07964281 18 24 C18.039992 25.99960012 18.04346799 28.00047242 18 30 C17.113125 29.690625 16.22625 29.38125 15.3125 29.0625 C12.53290845 28.1709329 9.86863625 27.50622993 7 27 C6.67 26.01 6.34 25.02 6 24 C-0.32278971 24.32626495 -5.55464391 24.61504892 -11 28 C-10.67 26.68 -10.34 25.36 -10 24 C-11.32 23.67 -12.64 23.34 -14 23 C-13.01 22.67 -12.02 22.34 -11 22 C-11 21.34 -11 20.68 -11 20 C-9.02 19.67 -7.04 19.34 -5 19 C-5 20.32 -5 21.64 -5 23 C-3.18674449 22.88648483 -1.37436643 22.75887039 0.4375 22.625 C1.44683594 22.55539063 2.45617187 22.48578125 3.49609375 22.4140625 C4.32238281 22.27742188 5.14867188 22.14078125 6 22 C6.33 21.34 6.66 20.68 7 20 C7.33 20.33 7.66 20.66 8 21 C8.19532961 19.2300132 8.38098882 17.45895721 8.5625 15.6875 C8.66691406 14.70136719 8.77132812 13.71523438 8.87890625 12.69921875 C9.16602527 9.90069653 9.16602527 9.90069653 8 7 C6.13946652 5.36980308 6.13946652 5.36980308 3.9375 3.875 C2.61020612 2.93726337 1.29335877 1.98401328 0 1 C0 0.67 0 0.34 0 0 Z " fill="#AC99A9" transform="translate(94,23)"/>
<path d="M0 0 C7.875 5.875 7.875 5.875 9 7 C9.16796875 8.9609375 9.16796875 8.9609375 9.1875 11.375 C9.20167969 12.16648437 9.21585938 12.95796875 9.23046875 13.7734375 C9 16 9 16 7 19 C7 19.33 7 19.66 7 20 C6.67449498 21.66821323 6.34153937 23.33499557 6 25 C4.35369672 24.85957123 2.70795821 24.71250671 1.0625 24.5625 C-0.31228516 24.44068359 -0.31228516 24.44068359 -1.71484375 24.31640625 C-4 24 -4 24 -5 23 C-6.79921997 21.48742046 -8.60111243 19.97817058 -10.40625 18.47265625 C-12 17 -12 17 -13 15 C-8.05 14.34 -3.1 13.68 2 13 C1.34 8.71 0.68 4.42 0 0 Z " fill="#EEEEF0" transform="translate(104,49)"/>
<path d="M0 0 C2.31 0 4.62 0 7 0 C7 10.23 7 20.46 7 31 C4.69 31 2.38 31 0 31 C0 20.77 0 10.54 0 0 Z " fill="#333436" transform="translate(397,50)"/>
<path d="M0 0 C2.31 0 4.62 0 7 0 C7 10.23 7 20.46 7 31 C4.69 31 2.38 31 0 31 C0 20.77 0 10.54 0 0 Z " fill="#333436" transform="translate(233,50)"/>
<path d="M0 0 C0.99 0 1.98 0 3 0 C3 5.28 3 10.56 3 16 C3.66 15.34 4.32 14.68 5 14 C4.75 15.875 4.75 15.875 4 18 C3.360625 18.309375 2.72125 18.61875 2.0625 18.9375 C-0.79690715 20.41052793 -0.91567916 22.01811768 -2 25 C-3.29788956 27.02318078 -4.62464661 29.02866014 -6 31 C-5.34 31.33 -4.68 31.66 -4 32 C-7.07999946 35.67230705 -9.2482602 36.56802365 -14 37 C-13.43923725 32.48041964 -11.65405364 29.53906571 -9.1875 25.75 C-3.73895038 17.13112033 -0.42976501 10.29287207 0 0 Z " fill="#E5E4E8" transform="translate(114,61)"/>
<path d="M0 0 C11.97674419 1.97674419 11.97674419 1.97674419 15 5 C15.4151862 7.7955871 15.23379365 10.14771748 15 13 C11.95786733 14.52106634 8.71952428 14.37429338 5.375 14.5625 C4.66859375 14.60568359 3.9621875 14.64886719 3.234375 14.69335938 C1.48981463 14.79944751 -0.25506697 14.90022889 -2 15 C-0.125 10.125 -0.125 10.125 1 9 C1.30523962 4.34911285 1.30523962 4.34911285 0 0 Z " fill="#E3E4E7" transform="translate(78,20)"/>
<path d="M0 0 C0.598125 0.061875 1.19625 0.12375 1.8125 0.1875 C4 1 4 1 9 7 C3.39 7 -2.22 7 -8 7 C-8.33 8.65 -8.66 10.3 -9 12 C-10.98 12.99 -10.98 12.99 -13 14 C-13.66 10.37 -14.32 6.74 -15 3 C-12.04808566 1.03205711 -10.34507977 0.47996408 -6.9375 -0.1875 C-6.05964844 -0.36667969 -5.18179688 -0.54585937 -4.27734375 -0.73046875 C-2 -1 -2 -1 0 0 Z " fill="#E1E2E4" transform="translate(95,55)"/>
<path d="M0 0 C0.33 0.66 0.66 1.32 1 2 C0.00664799 3.67063747 -0.99431758 5.33675599 -2 7 C-3.00184556 10.66237582 -3.07930508 14.19531696 -3.13891602 17.9777832 C-3.30524999 25.54305357 -4.0283826 30.77890863 -8.72265625 37.01953125 C-10.3613424 39.1674692 -10.3613424 39.1674692 -10 43 C-7.11211359 45.23084477 -7.11211359 45.23084477 -4 47 C-3 48 -3 48 -2.625 51.6875 C-2.15951356 55.86186228 -1.06656292 59.93343708 2 63 C2.2819396 65.28684338 2.44777005 67.57363273 2.62109375 69.87109375 C2.82776636 72.20927403 2.82776636 72.20927403 5 74 C8.35744112 74.24377883 8.35744112 74.24377883 12.125 74.125 C14.04699219 74.09792969 14.04699219 74.09792969 16.0078125 74.0703125 C17.48894531 74.03550781 17.48894531 74.03550781 19 74 C19.33 74.99 19.66 75.98 20 77 C17.5821288 77.10826289 15.16912444 77.18739789 12.75 77.25 C12.06808594 77.28351563 11.38617188 77.31703125 10.68359375 77.3515625 C7.28832615 77.41749003 5.35485432 77.25071844 2.55078125 75.26953125 C0.83441757 72.75767408 0.51377608 71.44277757 0.4375 68.4375 C0.3829298 65.06343462 0.3829298 65.06343462 -1.45703125 62.359375 C-2.22080078 61.68648437 -2.22080078 61.68648437 -3 61 C-4.59098609 57.90641594 -5.05961163 55.35179804 -5.25 51.9375 C-5.3853677 49.86629893 -5.3853677 49.86629893 -6 48 C-8.94236782 45.78831775 -8.94236782 45.78831775 -12 44 C-12.8671875 41.67578125 -12.8671875 41.67578125 -13 39 C-11.8203125 36.6484375 -11.8203125 36.6484375 -10.125 34.375 C-7.25472514 30.46341612 -5.89855317 27.68048575 -5.82421875 22.796875 C-5.80037109 21.98089844 -5.77652344 21.16492188 -5.75195312 20.32421875 C-5.70938175 18.62394367 -5.6779175 16.92334994 -5.65820312 15.22265625 C-5.45634817 9.24211656 -4.41668122 4.41668122 0 0 Z " fill="#34638A" transform="translate(34,35)"/>
<path d="M0 0 C4.18501417 1.51125512 7.55376738 3.04758596 10.25 6.6875 C11.37846741 10.16694118 11.12161607 13.35151799 11 17 C9.741875 17.04125 8.48375 17.0825 7.1875 17.125 C6.47980469 17.14820312 5.77210937 17.17140625 5.04296875 17.1953125 C3 17 3 17 0 15 C-0.66 15 -1.32 15 -2 15 C-1.47462276 9.9697924 -0.89405214 4.98114761 0 0 Z " fill="#F8EFF2" transform="translate(64,29)"/>
<path d="M0 0 C0 0.66 0 1.32 0 2 C0.99 2.33 1.98 2.66 3 3 C2.34 3 1.68 3 1 3 C0.90912109 4.26457031 0.90912109 4.26457031 0.81640625 5.5546875 C0.73261719 6.65039062 0.64882813 7.74609375 0.5625 8.875 C0.48128906 9.96554688 0.40007813 11.05609375 0.31640625 12.1796875 C0 15 0 15 -1 17 C-1.66 17 -2.32 17 -3 17 C-4.5078125 15.46875 -4.5078125 15.46875 -6.125 13.5 C-6.66382813 12.8503125 -7.20265625 12.200625 -7.7578125 11.53125 C-8.16773438 11.0259375 -8.57765625 10.520625 -9 10 C-12.11785113 10.64644661 -12.11785113 10.64644661 -13 13 C-13.99 12.67 -14.98 12.34 -16 12 C-14.68 10.68 -13.36 9.36 -12 8 C-12.66 7.67 -13.32 7.34 -14 7 C-14 6.01 -14 5.02 -14 4 C-12.42032193 3.32471777 -10.83608097 2.66010306 -9.25 2 C-8.36828125 1.62875 -7.4865625 1.2575 -6.578125 0.875 C-4 0 -4 0 0 0 Z M-18 13 C-17.34 13.33 -16.68 13.66 -16 14 C-16.99 14 -17.98 14 -19 14 C-18.67 13.67 -18.34 13.34 -18 13 Z " fill="#3A6586" transform="translate(55,18)"/>
<path d="M0 0 C2.39763185 2.39763185 2.34280586 3.33273498 2.625 6.625 C2.69976562 7.44226563 2.77453125 8.25953125 2.8515625 9.1015625 C2.92503906 10.04128906 2.92503906 10.04128906 3 11 C-3.01339937 12.95928381 -8.69632197 14.41632611 -15 15 C-15.33 13.02 -15.66 11.04 -16 9 C-15.40832031 8.74605469 -14.81664062 8.49210937 -14.20703125 8.23046875 C-9.94916874 6.37590221 -5.97612484 4.40977263 -2 2 C-1.34 2 -0.68 2 0 2 C0 1.34 0 0.68 0 0 Z " fill="#034899" transform="translate(68,99)"/>
<path d="M0 0 C8.21766784 -0.36254417 8.21766784 -0.36254417 11.5625 1.1875 C13 3 13 3 13.5 5.5 C13 8 13 8 11.5625 9.8125 C7.66280981 11.6196735 4.2730991 11.18851908 0 11 C0 7.37 0 3.74 0 0 Z " fill="#EDEDED" transform="translate(371,56)"/>
<path d="M0 0 C8.36923077 -0.36923077 8.36923077 -0.36923077 11.5625 1.5 C12.036875 1.995 12.51125 2.49 13 3 C12.6875 5.875 12.6875 5.875 12 9 C7.7975546 11.80163026 4.99895065 11.14489712 0 11 C0 7.37 0 3.74 0 0 Z " fill="#EEEFEF" transform="translate(339,56)"/>
<path d="M0 0 C0.99 0.495 0.99 0.495 2 1 C4.0374763 1.22858114 6.08040303 1.41024278 8.125 1.5625 C9.76855469 1.68818359 9.76855469 1.68818359 11.4453125 1.81640625 C12.28835937 1.87699219 13.13140625 1.93757813 14 2 C13.40431144 4.95963159 12.93683151 6.07656786 10.9375 8.5 C8.59161889 10.99979416 8.59161889 10.99979416 9 15 C8.34 15 7.68 15 7 15 C6.67 15.66 6.34 16.32 6 17 C5.01 16.67 4.02 16.34 3 16 C1.91681831 10.6787385 0.847126 5.36513131 0 0 Z " fill="#BF9EAD" transform="translate(64,55)"/>
<path d="M0 0 C2.52588702 2.36292656 3.88820837 3.66462511 5 7 C4.835 7.556875 4.67 8.11375 4.5 8.6875 C3.73110269 12.24365008 4.46209158 15.4139439 5 19 C6.65 18.01 8.3 17.02 10 16 C9.69052329 17.93798521 9.37731166 19.87537426 9.0625 21.8125 C8.80146484 23.43091797 8.80146484 23.43091797 8.53515625 25.08203125 C8 28 8 28 7 31 C6.67 30.34 6.34 29.68 6 29 C5.01 32.465 5.01 32.465 4 36 C3.34 36 2.68 36 2 36 C1.34 34.35 0.68 32.7 0 31 C0.66 31.33 1.32 31.66 2 32 C2.99 28.535 2.99 28.535 4 25 C3.34 25 2.68 25 2 25 C2 23.02 2 21.04 2 19 C2.66 19 3.32 19 4 19 C3.01 15.37 2.02 11.74 1 8 C-3.29 7.67 -7.58 7.34 -12 7 C-11.34 6.34 -10.68 5.68 -10 5 C-7.3984375 5.0234375 -7.3984375 5.0234375 -4.375 5.375 C-3.37210938 5.48585938 -2.36921875 5.59671875 -1.3359375 5.7109375 C-0.17964844 5.85402344 -0.17964844 5.85402344 1 6 C0.67 4.02 0.34 2.04 0 0 Z " fill="#8B8B97" transform="translate(77,50)"/>
<path d="M0 0 C0.66 0 1.32 0 2 0 C2.53293835 1.74635165 3.05090663 3.49727652 3.5625 5.25 C3.85253906 6.22453125 4.14257812 7.1990625 4.44140625 8.203125 C4.99542641 10.97710007 4.99868686 12.39264987 4 15 C3 16 3 16 -0.4375 16.125 C-4 16 -4 16 -6 15 C-5.54979057 9.14727744 -2.96160773 4.91779881 0 0 Z " fill="#FAF9FA" transform="translate(97,77)"/>
<path d="M0 0 C8.2079646 4.49115044 8.2079646 4.49115044 10 7 C10.07421875 9.91796875 10.07421875 9.91796875 9.6875 13.1875 C9.56761719 14.27417969 9.44773437 15.36085938 9.32421875 16.48046875 C9.21722656 17.31191406 9.11023438 18.14335938 9 19 C4.16616498 16.42195466 2.13806492 14.34518188 0.45703125 9.10546875 C-0.2214938 5.97961402 -0.19926668 3.18826689 0 0 Z " fill="#E6E8EB" transform="translate(94,26)"/>
<path d="M0 0 C0 0.99 0 1.98 0 3 C1.32 3.66 2.64 4.32 4 5 C2.33333333 5 0.66666667 5 -1 5 C1.64 6.98 4.28 8.96 7 11 C6.67 11.66 6.34 12.32 6 13 C3.69 11.35 1.38 9.7 -1 8 C-1.33 9.98 -1.66 11.96 -2 14 C-1.01 14.33 -0.02 14.66 1 15 C0.34 15 -0.32 15 -1 15 C-0.67 16.32 -0.34 17.64 0 19 C-1.32 18.67 -2.64 18.34 -4 18 C-4 17.34 -4 16.68 -4 16 C-6.31 16 -8.62 16 -11 16 C-11 15.67 -11 15.34 -11 15 C-10.21625 14.855625 -9.4325 14.71125 -8.625 14.5625 C-6.03578982 14.12201075 -6.03578982 14.12201075 -4 13 C-4 10.69 -4 8.38 -4 6 C-5.98 5.01 -7.96 4.02 -10 3 C-8.68 2.67 -7.36 2.34 -6 2 C-6.33 1.34 -6.66 0.68 -7 0 C-3.86650268 -1.04449911 -3.01031744 -0.93423645 0 0 Z " fill="#315877" transform="translate(96,19)"/>
<path d="M0 0 C3.63 0 7.26 0 11 0 C11.33 0.66 11.66 1.32 12 2 C12.66 2 13.32 2 14 2 C14.66 5.63 15.32 9.26 16 13 C10.53125 8.5078125 10.53125 8.5078125 9 7 C9 6.34 9 5.68 9 5 C8.2575 5.061875 7.515 5.12375 6.75 5.1875 C3.52480092 4.96760006 2.30276574 4.21747812 0 2 C0 1.34 0 0.68 0 0 Z " fill="#DCDDE1" transform="translate(89,47)"/>
<path d="M0 0 C0.56589844 0.15210937 1.13179688 0.30421875 1.71484375 0.4609375 C3.9804766 1.03717627 3.9804766 1.03717627 6.25390625 1.2890625 C8.67114329 1.64080935 10.74089984 2.06120885 13 3 C15.31818747 6.83949799 16.33112761 10.58544225 17 15 C16.01 15 15.02 15 14 15 C11 11.66666667 11 11.66666667 11 9 C10.34 9 9.68 9 9 9 C7.28891311 7.37897032 5.62746694 5.70496537 4 4 C3.236875 3.236875 2.47375 2.47375 1.6875 1.6875 C1.130625 1.130625 0.57375 0.57375 0 0 Z " fill="#DBBDC9" transform="translate(94,23)"/>
<path d="M0 0 C0.66 0 1.32 0 2 0 C5.07708804 5.93438408 6.48736475 10.29873464 6 17 C5.67 17 5.34 17 5 17 C4.87625 16.195625 4.7525 15.39125 4.625 14.5625 C4.41875 13.716875 4.2125 12.87125 4 12 C3.34 11.67 2.68 11.34 2 11 C2.185625 11.556875 2.37125 12.11375 2.5625 12.6875 C3.07551165 15.399133 2.6640724 17.34371039 2 20 C0.68 18.68 -0.64 17.36 -2 16 C-1.34 16 -0.68 16 0 16 C-0.50146871 11.2201045 -0.50146871 11.2201045 -2.125 6.75 C-2.41375 6.1725 -2.7025 5.595 -3 5 C-2 2 -2 2 0 0 Z " fill="#909BAB" transform="translate(111,36)"/>
<path d="M0 0 C1 1 1 1 1.0625 3.5625 C1.041875 4.366875 1.02125 5.17125 1 6 C-5.625 9 -5.625 9 -9 9 C-9.66 6.69 -10.32 4.38 -11 2 C-7.19975907 0.58595686 -4.07077118 -0.34892324 0 0 Z " fill="#F6F8FB" transform="translate(97,94)"/>
<path d="M0 0 C2.97 0.33 5.94 0.66 9 1 C8.39254603 5.85963179 6.27241033 9.7405518 4 14 C1.8553857 11.8553857 1.55435397 10.98260002 0.875 8.125 C0.70742187 7.44695312 0.53984375 6.76890625 0.3671875 6.0703125 C0 4 0 4 0 0 Z " fill="#F8F7F9" transform="translate(100,74)"/>
<path d="M0 0 C3.43301849 3.24744993 5.51567521 5.85945868 8 10 C4.04 10 0.08 10 -4 10 C-3.12686261 5.63431305 -2.34897511 3.57452735 0 0 Z " fill="#FAFAFB" transform="translate(93,36)"/>
<path d="M0 0 C2.86724686 0.57344937 3.8614515 0.8614515 6 3 C6.125 5.625 6.125 5.625 6 8 C4.35 8.66 2.7 9.32 1 10 C0.67 12.31 0.34 14.62 0 17 C-0.66 16.67 -1.32 16.34 -2 16 C-2.20674944 10.21101581 -1.59162079 5.57067277 0 0 Z " fill="#E5E7E9" transform="translate(56,21)"/>
<path d="M0 0 C0.8971875 0.309375 0.8971875 0.309375 1.8125 0.625 C1.8125 3.265 1.8125 5.905 1.8125 8.625 C0.554375 8.66625 -0.70375 8.7075 -2 8.75 C-2.70769531 8.77320313 -3.41539063 8.79640625 -4.14453125 8.8203125 C-6.1875 8.625 -6.1875 8.625 -9.1875 6.625 C-3.65359043 -0.62632979 -3.65359043 -0.62632979 0 0 Z " fill="#EFF0F2" transform="translate(73.1875,37.375)"/>
<path d="M0 0 C1.5675 0.020625 3.135 0.04125 4.75 0.0625 C1.78 4.5175 1.78 4.5175 -1.25 9.0625 C-8.125 3.3125 -8.125 3.3125 -9.25 1.0625 C-6.09493858 0.12630187 -3.28413498 -0.0432123 0 0 Z " fill="#F9F6F7" transform="translate(100.25,62.9375)"/>
<path d="M0 0 C0.33 0 0.66 0 1 0 C1.66 3.63 2.32 7.26 3 11 C2.34 11 1.68 11 1 11 C1 11.66 1 12.32 1 13 C-1.97 12.505 -1.97 12.505 -5 12 C-5.6796875 10.265625 -5.6796875 10.265625 -6 8 C-4.8203125 5.859375 -4.8203125 5.859375 -3.125 3.75 C-2.29355469 2.69039062 -2.29355469 2.69039062 -1.4453125 1.609375 C-0.96835938 1.07828125 -0.49140625 0.5471875 0 0 Z " fill="#F8F8F9" transform="translate(78,58)"/>
<path d="M0 0 C0 3 0 3 -1.56054688 4.90112305 C-2.62885742 5.94586792 -2.62885742 5.94586792 -3.71875 7.01171875 C-4.48574219 7.76904297 -5.25273438 8.52636719 -6.04296875 9.30664062 C-6.85378906 10.09232422 -7.66460937 10.87800781 -8.5 11.6875 C-9.31082031 12.48478516 -10.12164062 13.28207031 -10.95703125 14.10351562 C-12.96482203 16.0758748 -14.9792687 18.04091492 -17 20 C-18.98 19.34 -20.96 18.68 -23 18 C-23 17.67 -23 17.34 -23 17 C-21.35 17 -19.7 17 -18 17 C-17.77957031 16.42121094 -17.55914062 15.84242187 -17.33203125 15.24609375 C-15.5886912 12.30644411 -13.50131643 10.98533802 -10.6875 9.0625 C-6.72444131 6.28003753 -3.24685854 3.58274045 0 0 Z " fill="#2E65B8" transform="translate(124,80)"/>
<path d="M0 0 C-0.52537724 5.0302076 -1.10594786 10.01885239 -2 15 C-6.62222222 10.73333333 -6.62222222 10.73333333 -8.0625 7.9375 C-8 6 -8 6 -6.25 3.875 C-1.6 0 -1.6 0 0 0 Z " fill="#F9F9FA" transform="translate(63,28)"/>
<path d="M0 0 C7.75384615 5.29230769 7.75384615 5.29230769 9 8.875 C9 9.57625 9 10.2775 9 11 C6.69 11.33 4.38 11.66 2 12 C1.34 8.04 0.68 4.08 0 0 Z " fill="#E6E7EA" transform="translate(104,49)"/>
<path d="M0 0 C2 3 2 3 2 5 C2.99 4.67 3.98 4.34 5 4 C5 5.32 5 6.64 5 8 C7.97 8.33 10.94 8.66 14 9 C13.34 10.32 12.68 11.64 12 13 C11.67 12.34 11.34 11.68 11 11 C7.7 11 4.4 11 1 11 C0.9175 10.21625 0.835 9.4325 0.75 8.625 C0.28474077 5.85955198 0.28474077 5.85955198 -2 4.8125 C-2.66 4.544375 -3.32 4.27625 -4 4 C-4.33 3.34 -4.66 2.68 -5 2 C-2.525 2.99 -2.525 2.99 0 4 C0 2.68 0 1.36 0 0 Z " fill="#D18BA3" transform="translate(86,84)"/>
<path d="M0 0 C2.72957339 2.35735884 3.88893396 4.58133526 5 8 C5 8.99 5 9.98 5 11 C2.03 11 -0.94 11 -4 11 C-3.52269162 9.5410574 -3.04308958 8.08286504 -2.5625 6.625 C-2.29566406 5.81289063 -2.02882812 5.00078125 -1.75390625 4.1640625 C-1 2 -1 2 0 0 Z " fill="#F2F2F2" transform="translate(184,58)"/>
<path d="M0 0 C5.04347826 1.26086957 5.04347826 1.26086957 7 4 C7.48436452 7.14836941 7.26042732 8.5620086 5.625 11.3125 C4.820625 12.1478125 4.820625 12.1478125 4 13 C3.34 13 2.68 13 2 13 C1.34 8.71 0.68 4.42 0 0 Z " fill="#F9FAFA" transform="translate(73,20)"/>
<path d="M0 0 C0.33 0 0.66 0 1 0 C1.33 3.3 1.66 6.6 2 10 C3.051875 10.144375 4.10375 10.28875 5.1875 10.4375 C8.15460549 10.87526966 11.06794366 11.37804866 14 12 C14 12.33 14 12.66 14 13 C9.545 13.495 9.545 13.495 5 14 C5.99 15.32 6.98 16.64 8 18 C6.68 17.34 5.36 16.68 4 16 C3.67 17.65 3.34 19.3 3 21 C2.67 21 2.34 21 2 21 C0.27669093 13.90673679 -0.2494783 7.29031024 0 0 Z " fill="#A492A0" transform="translate(73,23)"/>
<path d="M0 0 C1.32 0 2.64 0 4 0 C4.87867729 3.73437848 5.08912219 7.16774573 5 11 C4.34 10.34 3.68 9.68 3 9 C2.34 11.31 1.68 13.62 1 16 C0.34 16 -0.32 16 -1 16 C-1.66 14.35 -2.32 12.7 -3 11 C-2.01 11.495 -2.01 11.495 -1 12 C-0.34 9.69 0.32 7.38 1 5 C0.34 5 -0.32 5 -1 5 C-0.67 3.35 -0.34 1.7 0 0 Z " fill="#878290" transform="translate(80,70)"/>
<path d="M0 0 C3.63 0 7.26 0 11 0 C6.60546875 6.25 6.60546875 6.25 5 8 C4.01 8 3.02 8 2 8 C1.34 5.36 0.68 2.72 0 0 Z " fill="#F9F9FA" transform="translate(66,58)"/>
<path d="M0 0 C0.33 1.32 0.66 2.64 1 4 C4.96 4 8.92 4 13 4 C12.67 5.32 12.34 6.64 12 8 C12 7.01 12 6.02 12 5 C5.67721029 5.32626495 0.44535609 5.61504892 -5 9 C-4.67 7.68 -4.34 6.36 -4 5 C-5.32 4.67 -6.64 4.34 -8 4 C-7.01 3.67 -6.02 3.34 -5 3 C-5 2.34 -5 1.68 -5 1 C-3.35 0.67 -1.7 0.34 0 0 Z " fill="#68717F" transform="translate(88,42)"/>
<path d="M0 0 C4.20490286 1.65192612 4.80982935 3.01228669 8 7 C3.71 7 -0.58 7 -5 7 C-3.35 4.69 -1.7 2.38 0 0 Z " fill="#FBFBFC" transform="translate(96,55)"/>
<path d="M0 0 C2.75 0.8125 2.75 0.8125 5 2 C5 4.64 5 7.28 5 10 C-1.75 6.375 -1.75 6.375 -4 3 C-2.3125 1.375 -2.3125 1.375 0 0 Z " fill="#F6F8F9" transform="translate(88,23)"/>
<path d="M0 0 C4.95 0.99 4.95 0.99 10 2 C9 5 9 5 7 7 C7.33 7.66 7.66 8.32 8 9 C6.02 9 4.04 9 2 9 C1.855625 7.88625 1.71125 6.7725 1.5625 5.625 C1.21627965 2.17857953 1.21627965 2.17857953 0 0 Z " fill="#AF96A6" transform="translate(78,20)"/>
<path d="M0 0 C0.33 0 0.66 0 1 0 C1.1953125 2.01822917 1.390625 4.03645833 1.5859375 6.0546875 C1.86374749 8.22668245 1.86374749 8.22668245 4 10 C7.35744112 10.24377883 7.35744112 10.24377883 11.125 10.125 C12.40632813 10.10695313 13.68765625 10.08890625 15.0078125 10.0703125 C15.99523438 10.04710938 16.98265625 10.02390625 18 10 C18.33 10.99 18.66 11.98 19 13 C16.5821288 13.10826289 14.16912444 13.18739789 11.75 13.25 C10.72712891 13.30027344 10.72712891 13.30027344 9.68359375 13.3515625 C6.29059929 13.41744589 4.34583428 13.2407707 1.53125 11.28125 C-0.23606409 8.64831268 -0.43410567 7.37979634 -0.25 4.25 C-0.21390625 3.45078125 -0.1778125 2.6515625 -0.140625 1.828125 C-0.09421875 1.22484375 -0.0478125 0.6215625 0 0 Z " fill="#1B5489" transform="translate(35,99)"/>
<path d="M0 0 C3.67420866 0.30618405 4.78135513 0.75771784 7.3125 3.5625 C8.1478125 4.7690625 8.1478125 4.7690625 9 6 C5.37 6 1.74 6 -2 6 C-1 2 -1 2 0 0 Z " fill="#FAFAFA" transform="translate(87,66)"/>
<path d="M0 0 C0 0.99 0 1.98 0 3 C-9.41002278 7.59225513 -9.41002278 7.59225513 -14 7 C-14 6.01 -14 5.02 -14 4 C-12.42032193 3.32471777 -10.83608097 2.66010306 -9.25 2 C-8.36828125 1.62875 -7.4865625 1.2575 -6.578125 0.875 C-4 0 -4 0 0 0 Z " fill="#CCCAD1" transform="translate(55,18)"/>
<path d="M0 0 C0.33 0.66 0.66 1.32 1 2 C2.3153341 2.70151152 3.65117592 3.36525925 5 4 C8 6 8 6 8.6875 8.125 C8.790625 8.74375 8.89375 9.3625 9 10 C10.65 10 12.3 10 14 10 C13.67 10.66 13.34 11.32 13 12 C10.2734375 12.28125 10.2734375 12.28125 7 12 C4.6640625 10.03125 4.6640625 10.03125 2.625 7.5 C1.93664062 6.6646875 1.24828125 5.829375 0.5390625 4.96875 C0.03117187 4.3190625 -0.47671875 3.669375 -1 3 C-0.67 2.01 -0.34 1.02 0 0 Z " fill="#F4E5EB" transform="translate(78,84)"/>
<path d="M0 0 C3.465 1.98 3.465 1.98 7 4 C6.75 6.375 6.75 6.375 6 9 C4.02 9.99 4.02 9.99 2 11 C1.34 7.37 0.68 3.74 0 0 Z " fill="#F7F7F8" transform="translate(80,58)"/>
<path d="M0 0 C0.66 0.33 1.32 0.66 2 1 C2.625 4.0625 2.625 4.0625 3 7 C-0.63 7 -4.26 7 -8 7 C-6.71034824 5.62437146 -5.37310707 4.29233607 -4 3 C-3.34 3 -2.68 3 -2 3 C-2 2.34 -2 1.68 -2 1 C-1.34 0.67 -0.68 0.34 0 0 Z " fill="#FAFBFB" transform="translate(75,49)"/>
<path d="M0 0 C0.33 0.66 0.66 1.32 1 2 C0.67 2.66 0.34 3.32 0 4 C0.66 4.33 1.32 4.66 2 5 C-1.07999946 8.67230705 -3.2482602 9.56802365 -8 10 C-7.50168276 6.31245243 -6.89932357 4.39509338 -4 2 C-3.67 2.66 -3.34 3.32 -3 4 C-2.01 2.68 -1.02 1.36 0 0 Z " fill="#C1AABD" transform="translate(108,88)"/>
<path d="M0 0 C0.99 0 1.98 0 3 0 C3 4.29 3 8.58 3 13 C1.68 12.01 0.36 11.02 -1 10 C-1.171875 7.51953125 -1.171875 7.51953125 -0.75 4.8125 C-0.62109375 3.91144531 -0.4921875 3.01039062 -0.359375 2.08203125 C-0.24078125 1.39496094 -0.1221875 0.70789062 0 0 Z " fill="#F0F2F4" transform="translate(114,61)"/>
<path d="M0 0 C1.71948485 2.96948578 2.22039127 4.91452225 1.9765625 8.328125 C1.89921875 9.52695313 1.89921875 9.52695313 1.8203125 10.75 C1.75585938 11.575 1.69140625 12.4 1.625 13.25 C1.56828125 14.09046875 1.5115625 14.9309375 1.453125 15.796875 C1.31209668 17.86529042 1.15738212 19.9327646 1 22 C0.34 22.33 -0.32 22.66 -1 23 C-0.67 17.39 -0.34 11.78 0 6 C-0.99 6 -1.98 6 -3 6 C-3 4.35 -3 2.7 -3 1 C-2.01 1.495 -2.01 1.495 -1 2 C-0.67 1.34 -0.34 0.68 0 0 Z " fill="#937F90" transform="translate(117,55)"/>
<path d="M0 0 C0.99 0.33 1.98 0.66 3 1 C3 1.66 3 2.32 3 3 C3.99 3.33 4.98 3.66 6 4 C5.01 4 4.02 4 3 4 C3 4.66 3 5.32 3 6 C1.35 6 -0.3 6 -2 6 C-2 5.67 -2 5.34 -2 5 C-4.97 4.67 -7.94 4.34 -11 4 C-11 3.67 -11 3.34 -11 3 C-10.28972656 2.86722656 -9.57945313 2.73445312 -8.84765625 2.59765625 C-7.92855469 2.42105469 -7.00945313 2.24445312 -6.0625 2.0625 C-4.68771484 1.80146484 -4.68771484 1.80146484 -3.28515625 1.53515625 C-1.04710156 1.22285012 -1.04710156 1.22285012 0 0 Z " fill="#B399A9" transform="translate(71,12)"/>
<path d="M0 0 C1.32 0 2.64 0 4 0 C4.66 1.98 5.32 3.96 6 6 C4.68 5.67 3.36 5.34 2 5 C1.95101562 5.75925781 1.90203125 6.51851562 1.8515625 7.30078125 C1.77679688 8.29464844 1.70203125 9.28851563 1.625 10.3125 C1.52058594 11.79169922 1.52058594 11.79169922 1.4140625 13.30078125 C1 16 1 16 -1 19 C-0.9278125 17.96359375 -0.855625 16.9271875 -0.78125 15.859375 C-0.68742899 14.4895882 -0.59368292 13.11979626 -0.5 11.75 C-0.45230469 11.06808594 -0.40460937 10.38617188 -0.35546875 9.68359375 C-0.13521281 6.44268497 0 3.2506634 0 0 Z " fill="#86929C" transform="translate(62,24)"/>
<path d="M0 0 C-0.33 2.97 -0.66 5.94 -1 9 C-3.04119788 7.38405168 -5.04072937 5.7143618 -7 4 C-7 3.34 -7 2.68 -7 2 C-4.35261084 0.5393715 -3.10551666 0 0 0 Z " fill="#DDE1E4" transform="translate(54,23)"/>
<path d="M0 0 C-0.33 2.64 -0.66 5.28 -1 8 C-4.465 6.02 -4.465 6.02 -8 4 C-7.67 3.01 -7.34 2.02 -7 1 C-2.25 0 -2.25 0 0 0 Z " fill="#C5CDD2" transform="translate(113,60)"/>
<path d="M0 0 C0.66 0 1.32 0 2 0 C2.66 3.63 3.32 7.26 4 11 C-1.46875 6.5078125 -1.46875 6.5078125 -3 5 C-3 4.34 -3 3.68 -3 3 C-2.34 3 -1.68 3 -1 3 C-0.67 2.01 -0.34 1.02 0 0 Z " fill="#FBF8FA" transform="translate(101,49)"/>
<path d="M0 0 C2.78633115 4.17949673 4 6.93375326 4 12 C1.525 11.01 1.525 11.01 -1 10 C-0.67 6.7 -0.34 3.4 0 0 Z " fill="#F7F6F7" transform="translate(82,76)"/>
<path d="M0 0 C0.99 0 1.98 0 3 0 C2.85915204 1.79206547 2.71216299 3.58364917 2.5625 5.375 C2.48128906 6.37273438 2.40007813 7.37046875 2.31640625 8.3984375 C2 11 2 11 1 13 C0.34 13 -0.32 13 -1 13 C-2.5078125 11.46875 -2.5078125 11.46875 -4.125 9.5 C-4.66382813 8.8503125 -5.20265625 8.200625 -5.7578125 7.53125 C-6.16773438 7.0259375 -6.57765625 6.520625 -7 6 C-6.67 5.34 -6.34 4.68 -6 4 C-4.35 5.65 -2.7 7.3 -1 9 C-0.67 6.03 -0.34 3.06 0 0 Z " fill="#9F97A3" transform="translate(53,22)"/>
<path d="M0 0 C0.33 0 0.66 0 1 0 C1 2.31 1 4.62 1 7 C1.99 7.33 2.98 7.66 4 8 C3.34 8 2.68 8 2 8 C2.33 9.32 2.66 10.64 3 12 C1.68 11.67 0.36 11.34 -1 11 C-1 10.34 -1 9.68 -1 9 C-3.31 9 -5.62 9 -8 9 C-8 8.67 -8 8.34 -8 8 C-7.21625 7.855625 -6.4325 7.71125 -5.625 7.5625 C-3.03578982 7.12201075 -3.03578982 7.12201075 -1 6 C-0.34227572 2.97065509 -0.34227572 2.97065509 0 0 Z " fill="#697A85" transform="translate(93,26)"/>
<path d="M0 0 C5.75 1.75 5.75 1.75 8 4 C7.625 6.625 7.625 6.625 7 9 C5.29115995 7.37660195 3.62553283 5.70680947 2 4 C2 3.34 2 2.68 2 2 C1.34 2 0.68 2 0 2 C0 1.34 0 0.68 0 0 Z " fill="#CFD3D9" transform="translate(103,30)"/>
<path d="M0 0 C0.33 0.66 0.66 1.32 1 2 C2.65 2 4.3 2 6 2 C6.33 2.66 6.66 3.32 7 4 C5.68 4.33 4.36 4.66 3 5 C3 5.99 3 6.98 3 8 C2.566875 7.525625 2.13375 7.05125 1.6875 6.5625 C-0.02309613 4.76313043 -0.02309613 4.76313043 -3 4 C-3 3.34 -3 2.68 -3 2 C-3.66 1.67 -4.32 1.34 -5 1 C-3 0 -3 0 0 0 Z " fill="#7C899B" transform="translate(58,16)"/>
<path d="M0 0 C0.99 0.66 1.98 1.32 3 2 C3 3.32 3 4.64 3 6 C0.69 6.33 -1.62 6.66 -4 7 C-4 5.68 -4 4.36 -4 3 C-2.68 3.33 -1.36 3.66 0 4 C0 2.68 0 1.36 0 0 Z " fill="#F7F8F9" transform="translate(110,54)"/>
<path d="M0 0 C7.42857143 1 7.42857143 1 11 2 C11 2.66 11 3.32 11 4 C11.66 4.33 12.32 4.66 13 5 C10.22043508 6.38978246 8.87953614 5.61356169 5.9375 4.75 C5.03902344 4.49734375 4.14054687 4.2446875 3.21484375 3.984375 C2.48394531 3.65953125 1.75304687 3.3346875 1 3 C0.67 2.01 0.34 1.02 0 0 Z " fill="#BAC4CB" transform="translate(78,16)"/>
<path d="M0 0 C6.93 0.495 6.93 0.495 14 1 C13.67 1.66 13.34 2.32 13 3 C10.71484375 3.4140625 10.71484375 3.4140625 7.9375 3.625 C6.55884766 3.73714844 6.55884766 3.73714844 5.15234375 3.8515625 C4.44207031 3.90054687 3.73179688 3.94953125 3 4 C2.67 3.01 2.34 2.02 2 1 C1.34 0.67 0.68 0.34 0 0 Z " fill="#E4E4E9" transform="translate(56,15)"/>
<path d="M0 0 C0.226875 0.53625 0.45375 1.0725 0.6875 1.625 C2.43382056 4.78500863 4.6402849 7.2676983 7 10 C4.53199953 8.84826645 2.95216435 7.95216435 1 6 C-1.06874034 5.3574765 -1.06874034 5.3574765 -3 5 C-3 3.68 -3 2.36 -3 1 C-2.01 0.67 -1.02 0.34 0 0 Z " fill="#B991A3" transform="translate(90,61)"/>
<path d="M0 0 C3 1 3 1 4.25 2.6875 C5.23749311 5.73227042 4.7002014 7.91911384 4 11 C1 9 1 9 0.48828125 6.8359375 C0.43027344 6.02382813 0.37226562 5.21171875 0.3125 4.375 C0.24675781 3.55773438 0.18101563 2.74046875 0.11328125 1.8984375 C0.07589844 1.27195313 0.03851563 0.64546875 0 0 Z " fill="#E3E8EB" transform="translate(113,47)"/>
<path d="M0 0 C0 0.99 0 1.98 0 3 C1.32 3.66 2.64 4.32 4 5 C1 5 1 5 -2 3 C-2.99 3.33 -3.98 3.66 -5 4 C-5.66 2.68 -6.32 1.36 -7 0 C-3.86650268 -1.04449911 -3.01031744 -0.93423645 0 0 Z " fill="#7B8A95" transform="translate(96,19)"/>
<path d="M0 0 C1.1446875 0.495 1.1446875 0.495 2.3125 1 C4.99069135 2.17436686 4.99069135 2.17436686 8 2 C6.1875 4.5 6.1875 4.5 4 7 C3.01 7 2.02 7 1 7 C0.67 4.69 0.34 2.38 0 0 Z " fill="#D1879F" transform="translate(58,41)"/>
<path d="M0 0 C0.33 1.32 0.66 2.64 1 4 C-0.32 3.67 -1.64 3.34 -3 3 C-3 3.99 -3 4.98 -3 6 C-2.01 6.33 -1.02 6.66 0 7 C-1.65 7.66 -3.3 8.32 -5 9 C-4.67 7.68 -4.34 6.36 -4 5 C-5.32 4.67 -6.64 4.34 -8 4 C-7.01 3.67 -6.02 3.34 -5 3 C-5 2.34 -5 1.68 -5 1 C-3.35 0.67 -1.7 0.34 0 0 Z " fill="#929EA7" transform="translate(88,42)"/>
<path d="M0 0 C2.31 0 4.62 0 7 0 C7 1.98 7 3.96 7 6 C3.73539027 4.19587357 2.11070205 3.16605307 0 0 Z " fill="#F2F2F4" transform="translate(105,47)"/>
<path d="M0 0 C1.98 0 3.96 0 6 0 C4.68 2.31 3.36 4.62 2 7 C0 5 0 5 -0.125 2.375 C-0.08375 1.59125 -0.0425 0.8075 0 0 Z " fill="#F9FAFA" transform="translate(78,48)"/>
<path d="M0 0 C2 3 2 3 2 5 C2.99 4.67 3.98 4.34 5 4 C4.67 5.32 4.34 6.64 4 8 C4 7.34 4 6.68 4 6 C3.071875 6.0825 2.14375 6.165 1.1875 6.25 C-2 6 -2 6 -3.875 4 C-4.24625 3.34 -4.6175 2.68 -5 2 C-2.525 2.99 -2.525 2.99 0 4 C0 2.68 0 1.36 0 0 Z " fill="#B3A0AD" transform="translate(86,84)"/>
<path d="M0 0 C1.65 0.99 3.3 1.98 5 3 C4.34 4.32 3.68 5.64 3 7 C2.01 7 1.02 7 0 7 C0 4.69 0 2.38 0 0 Z " fill="#F6F0F3" transform="translate(94,26)"/>
<path d="M0 0 C4.455 0.99 4.455 0.99 9 2 C8.01 2.99 7.02 3.98 6 5 C3.9375 4.9375 3.9375 4.9375 2 4 C1.34 2.68 0.68 1.36 0 0 Z " fill="#EDEEF2" transform="translate(78,20)"/>
<path d="M0 0 C0.33 0.66 0.66 1.32 1 2 C-3.29 2 -7.58 2 -12 2 C-12 1.67 -12 1.34 -12 1 C-3.61572052 -1.37554585 -3.61572052 -1.37554585 0 0 Z " fill="#164F7C" transform="translate(53,110)"/>
<path d="M0 0 C2 3.75 2 3.75 2 6 C0.35 6 -1.3 6 -3 6 C-3 4.35 -3 2.7 -3 1 C-2.01 1.495 -2.01 1.495 -1 2 C-0.67 1.34 -0.34 0.68 0 0 Z " fill="#A592A3" transform="translate(117,55)"/>
<path d="M0 0 C-0.33 2.31 -0.66 4.62 -1 7 C-1.66 7 -2.32 7 -3 7 C-3.33 6.01 -3.66 5.02 -4 4 C-4.99 4 -5.98 4 -7 4 C-2.25 0 -2.25 0 0 0 Z " fill="#99A4AC" transform="translate(73,37)"/>
<path d="M0 0 C1.485 0.99 1.485 0.99 3 2 C2.6875 3.875 2.6875 3.875 2 6 C1.01 6.66 0.02 7.32 -1 8 C-0.67 5.36 -0.34 2.72 0 0 Z " fill="#EFF2F4" transform="translate(105,36)"/>
<path d="M0 0 C1.98 0.495 1.98 0.495 4 1 C4 1.99 4 2.98 4 4 C2.35 4 0.7 4 -1 4 C-0.67 2.68 -0.34 1.36 0 0 Z " fill="#6D7D89" transform="translate(103,11)"/>
<path d="M0 0 C1.98 0.495 1.98 0.495 4 1 C4 1.99 4 2.98 4 4 C2.35 4 0.7 4 -1 4 C-0.67 2.68 -0.34 1.36 0 0 Z " fill="#B7BFC6" transform="translate(112,72)"/>
<path d="M0 0 C1.32 0 2.64 0 4 0 C4.33 0.99 4.66 1.98 5 3 C4.01 3.66 3.02 4.32 2 5 C1.67 4.67 1.34 4.34 1 4 C0.34 3.67 -0.32 3.34 -1 3 C-0.67 2.01 -0.34 1.02 0 0 Z " fill="#21384A" transform="translate(80,70)"/>
</svg>
